<svg id="SvgjsSvg1001" width="288" height="288" xmlns="http://www.w3.org/2000/svg" version="1.1" xmlns:xlink="http://www.w3.org/1999/xlink" xmlns:svgjs="http://svgjs.com/svgjs"><defs id="SvgjsDefs1002"></defs><g id="SvgjsG1008"><svg xmlns="http://www.w3.org/2000/svg" width="288" height="288" viewBox="0 0 1122.52 793.701"><g transform="matrix(1.33333 0 0 -1.33333 0 793.7)" fill="#000000" class="color000 svgShape"><path fill="#f8f9fa" fill-rule="evenodd" d="m 527.6625,305.4206 c 0,0 -10.6759,18.1443 -10.6759,18.1443 0,0 108.1741,0.7112 107.8645,0.7152 -0.0147,0.0419 0.1894,-2.3417 0.1747,-2.2958 0.0946,-0.0193 0.2148,-0.0661 0.3554,-0.1341 v -0.3416 l -0.9442,-51.7855 1.6141,-1.4361 h -97.8818 v -21.2371 z m 5.2143,14.292 v 0 c 1.762,0 3.204,-1.2504 3.204,-2.7777 v -10.6894 h -6.4094 v 10.6894 c 0,1.5279 1.4426,2.7777 3.2054,2.7777 z m 107.1916,-51.4256 -0.4408,40.4717 c 0,0 38.4644,22.2262 38.4644,22.2262 1.0718,0.0626 38.4653,-18.082 38.7374,-20.1019 -0.1119,1.5006 22.6146,17.4614 24.0937,18.4291 1.1492,0.7529 1.2988,0.957 2.5665,0.383 l 37.4743,-30.6641 -0.1514,-43.6708 H 640.3119 v 12.9268 z m -168.3408,89.7089 c 0.0822,-0.1814 -0.7209,-6.2048 -0.6523,-6.3748 0.5718,-1.3879 1.4355,-4.7475 2.6606,-5.4151 6.3808,-3.484 29.9534,-10.8592 36.8464,-11.9457 0.6472,7.7346 0.4442,15.9902 1.0925,23.7248 1.8737,0.8178 4.9963,0.2997 7.1992,0.3442 4.7794,0.098 10.1783,0.2829 14.8192,-0.2279 l 21.64,0.0785 c 2.3856,0.1922 13.6091,-0.3121 14.7784,0.1854 0.0567,-0.6143 0.0879,-0.3773 -0.2376,-0.921 -0.5615,-0.6551 0.1395,-0.5848 -0.8163,-1.3371 l 0.4909,-0.4743 c 0.2875,-0.2656 0.0213,0.1721 0.3714,-0.335 l 0.2982,-0.9043 c -0.1174,-0.6383 0.3328,-0.523 -0.8396,-0.7931 l 0.2687,-1.0471 c 0.008,-0.0573 0.0153,-0.1259 0.0187,-0.178 0.003,-0.042 -0.005,-0.1086 -0.003,-0.146 0.009,-0.5343 -0.4941,-0.0488 0.1074,-0.6069 l 0.2628,-0.176 c 0.3362,-0.1809 -0.1213,-0.0188 0.4776,-0.173 1.239,-0.32 1.7853,-0.005 2.3769,0.0621 0.0635,0.007 0.1267,0.0162 0.1902,0.0207 l 0.7843,-0.0621 0.5009,2.3171 c -1.0386,0.5201 -0.2035,0.0161 -1.0026,0.2262 l -0.2101,1.4026 c 1.2201,0.35 0.2761,0.2579 1.1027,0.0147 0.0431,-1.2895 0.0493,-1.2594 1.4979,-1.182 -0.4488,-0.6503 -0.2708,-0.2322 -0.6724,-1.1325 0.9672,0.0774 1.7716,-0.2282 3.1949,-0.1754 -0.6596,-1.6093 -0.6245,0.737 -1.9261,-1.0517 0.0586,-0.0488 0.1627,-0.0181 0.2046,-0.1089 0.0406,-0.0873 0.1508,-0.0779 0.2055,-0.0926 0.0533,-0.0134 0.142,-0.0533 0.2067,-0.0667 l 2.5256,-0.005 c 0.4856,0.1188 0.3402,0.0862 0.6364,0.273 -0.1434,0.3501 0.633,-0.2194 -0.4274,0.4422 -0.0448,0.0281 -0.1129,0.0706 -0.1622,0.0961 l -0.6715,0.1701 c 1.4893,0.7081 4.333,0.1125 6.0973,0.2052 -0.2815,-1.3459 -1.0825,-0.4141 0.2274,-1.2597 1.0318,0.3787 0.6094,0.4969 0.7197,1.582 0.8348,-0.2061 1.8779,-0.2509 2.6671,-0.2903 0.9604,-0.0493 2.0134,0.4649 2.8732,-0.2372 -0.8257,-1.1013 -1.8048,0.8688 -2.5118,-0.7084 0.5023,-0.3056 1.1205,-0.0581 2.5917,-0.3169 l 0.6123,-0.3274 c -0.669,0.003 -0.6661,-0.2475 -1.0505,-0.9972 l 1.8862,-0.1353 c 0.6542,0.9703 -0.0873,2.0863 2.2884,1.2685 0.3554,-0.1221 0.5522,0.0448 1.1738,0.2767 2.247,0.1055 1.8655,-0.5321 1.9335,-0.7121 -0.8203,-0.3991 -2.3063,-0.1355 -3.0314,0.0199 0.2441,-1.2305 0.2642,-0.2687 1.0418,-1.3292 0.3696,0.7016 0.2009,0.3801 1.2274,0.4728 0.9569,0.0868 0.6647,-0.1814 1.5519,-0.0221 l 0.1868,0.7844 c 0,0.009 -0.17,0.5482 -0.1907,0.6724 l 0.5989,-0.2554 6.1991,0.3367 c 0.0476,0.009 0.1094,0.0221 0.1562,0.0301 l 1.1991,0.142 -0.2367,-1.1486 c 0.2996,0.6925 0.1913,0.447 1.889,0.621 l -0.0301,1.2226 c 1.2606,0.7144 1.5979,-0.0473 2.7791,0.5769 l -0.5522,1.2373 c -0.6069,-0.0734 0.4329,-0.5689 -1.1778,-0.6956 l -0.8779,0.0918 c -0.6675,0.1114 0.004,-0.2874 -0.6627,0.1761 0.5221,0.4711 -0.5431,-0.4434 0.2687,0.1649 l 0.5482,0.4428 c -0.3614,0.9697 -0.3923,0.7095 -0.2347,1.8853 -3.4443,0 -0.6723,1.8757 -4.2471,1.1812 0.009,-0.0652 0.0612,-0.0907 0.0751,-0.182 l 0.5329,-0.8844 c 0.0281,-0.1168 -0.4195,-1.2285 0.0981,-0.7075 -2.2776,-0.4037 0.5791,0.7835 -2.1849,0.8303 -0.1446,0.5354 -0.2914,0.8317 -0.4729,1.1806 0.6543,0.3234 -0.007,-0.0388 0.5511,0.1987 l 0.6956,0.3393 c 0.6795,-0.0938 3.2754,-0.148 3.983,-0.0938 l 12.5181,0.0567 c 0.9116,-0.0587 0.8209,-0.2923 1.8473,-0.1928 4.0113,0.3895 14.1109,-0.6576 18.9136,-0.3022 0.5896,0.044 2.4117,0.1707 3.21,0.0528 1.3881,-0.2041 1.8147,0.0493 3.3635,-0.1381 3.4949,-0.4209 7.9747,0.0391 11.397,-0.1182 1.1617,-0.0538 2.1269,-0.3861 3.13,0.1976 l -1.186,0.5995 c -1.2458,0.3807 -2.6371,0.2333 -3.8188,0.809 -1.3581,0.6616 -6.8777,2.0095 -8.5292,2.1935 -1.6486,0.1837 -1.1265,0.5456 -2.8219,0.695 -1.237,0.1069 -1.7747,0.1228 -2.8363,0.2308 -1.7042,0.1715 -0.7498,0.5536 -2.9747,0.6429 0.5522,2.0684 0.3935,1.8314 -1.3867,2.2303 -0.6783,0.1522 -0.5148,0.2534 -1.2566,0.415 0.7203,-1.0959 1.9817,-0.1163 1.8462,-2.3117 -0.877,0.2801 -2.0588,0.1159 -2.6612,0.3708 -0.8203,0.3489 -0.8248,1.1078 -1.3586,1.8813 -0.3594,0.5176 -3.1867,2.2417 -4.0337,2.4118 -0.1426,-0.7475 -0.1726,-3.5689 -0.5168,-3.953 -0.587,-0.5221 -3.5796,-0.5842 -4.248,0.0947 -0.5536,0.5616 -0.4535,6.2734 -0.5408,7.524 1.4465,-0.1947 1.22,-0.6897 2.5319,-1.2719 l 4.7007,-2.6498 c 0.7401,-0.4842 1.5205,-1.0931 2.6509,-1.2818 -0.4634,0.9303 -1.7747,1.3305 -2.5517,1.8708 -1.2864,0.8963 -2.8091,1.2544 -4.1304,2.1969 -0.6488,0.4615 -0.4141,0.4308 -1.3325,0.8311 -0.8632,0.3753 -0.6911,0.2387 -1.3972,0.7121 -0.6906,0.4643 -1.2561,1.1965 -2.0064,0.4144 -1.4012,-1.4635 -0.2287,-5.0295 -1.0111,-5.9233 -0.563,-0.3135 0.102,-0.2735 -0.7189,-0.108 -0.3435,0.07 -0.4062,0.1814 -0.631,0.3215 -0.5595,0.3486 -0.7937,0.5266 -1.3025,0.8297 -2.8678,1.7126 -1.2659,2.7164 -1.476,6.0437 -0.0513,0.7977 -0.3047,1.7521 -1.1166,2.0296 l -0.358,0.0641 c -0.5249,0.0232 -0.2928,0.0272 -0.5904,-0.1128 l -0.4556,-5.353 c -1.724,0.2636 -1.3045,1.0279 -1.2418,2.6532 0.0428,1.1118 0.2321,2.9605 -0.2781,3.7656 -0.9422,-1.3646 0.2503,-4.4552 -0.9215,-5.9105 -1.4188,-1.7655 0.0918,-1.6353 0.3373,-2.8078 l -3.913,-0.945 c 0.4615,0.7874 1.1917,0.642 1.2685,1.3612 0.072,0.6774 -0.2287,-0.2795 -0.066,0.4614 0.2588,1.164 2.3865,0.6223 2.425,5.2495 0.0114,1.48 0.3048,2.6473 -0.5422,3.5377 -0.4281,0.3756 -1.3799,0.4436 -1.9233,0.6803 -1.0151,0.4436 -1.018,0.3447 -0.9253,1.72 1.4154,-0.007 0.2376,0.1361 1.2127,-0.4575 1.5279,-0.9357 7.1277,-4.2338 8.655,-4.4861 -0.3016,0.5757 -0.2554,0.4363 -0.7531,0.7566 -1.3272,0.8515 -2.4203,0.7001 -2.8078,2.3921 0.6228,0.4564 2.5705,2.0523 2.7992,2.6127 -0.9603,0.5967 -1.8181,0.1131 -2.7977,-0.0907 l -2.6434,0.0686 0.1228,-1.2532 c -1.2838,0.531 0.1721,0.8445 -1.4553,1.0772 -1.1719,0.1687 -0.2441,-0.3716 -1.8601,0.3195 1.2951,1.8507 -0.8283,2.1903 -2.2343,2.9338 -0.9229,0.4896 -0.3716,0.5344 -1.5293,0.7203 l -0.2874,-0.5876 c -0.3603,-0.953 -0.1607,-2.0248 -0.4524,-2.8211 -0.7657,1.4973 0.8759,4.2265 -1.385,4.5545 -0.5664,-0.747 -0.313,-1.7507 -0.3288,-2.7077 -0.0196,-1.1959 -0.2671,-1.55 -0.2622,-2.8159 0.004,-1.9143 -0.1007,-3.7245 -0.1982,-5.7039 0.9593,0.2948 1.0519,0.8036 1.402,-0.2047 -0.981,-0.555 -1.7209,0.2333 -1.8887,-1.1712 -0.0556,-0.4655 0.2132,-1.7728 0.1712,-2.8279 -0.0833,-2.1155 -0.1134,-4.2633 -0.1548,-6.3802 -1.5417,-0.3373 -21.2017,-0.1638 -23.9915,-0.0218 -3.7477,0.1913 -7.9042,-0.1381 -11.5643,-0.0108 -4.0892,0.144 -7.9721,0.0187 -12.0353,0.1474 -5.7892,0.1834 -11.7723,-0.5802 -17.4549,0.0955 -2.2717,0.2688 -3.236,-0.2375 -5.4309,-0.2202 -6.7623,0.0527 -22.3923,0.6029 -22.9612,0.7563 0,0 -0.7038,-2.8585 -0.6205,-2.852 -0.3719,-0.0312 -0.879,-0.0646 -1.4913,-0.0932 -0.1885,0.7951 -16.6978,21.9106 -18.6639,24.0157 0,0 -67.6307,0.7375 -67.6307,0.7375 14.2016,-9.9207 35.6434,-20.5713 49.1106,-28.3127 z M 378.1672,211.53 l 83.4908,0.929 3.1607,-7.3506 -90.4051,-0.9289 z m 6.7224,10.1943 h 72.5224 l 4.544,-6.8675 h -81.2143 z m 62.8489,7.1932 v -4.6281 H 394.96 v 4.7573 l -82.6291,0.201 c 0,0 -0.4382,37.9157 -0.4382,37.9157 0,0 -93.8211,1.1236 -93.8211,1.1236 0,1.4862 1.087,58.1091 0.2539,55.1914 v 10e-4 c 0.18,0.985 0.415,1.9675 0.8331,2.9165 0,0 36.1962,0.1123 44.8393,-0.4566 1.4494,-0.0961 2.5251,0.1258 3.5615,0.0192 3.6844,-0.377 6.9171,-0.3214 10.6007,-0.2267 3.4588,0.0878 7.5419,-0.2554 11.1421,-0.3821 1.2272,-0.0423 2.467,0.064 3.7236,0.0198 2.4979,-0.0879 4.6573,-0.0386 7.1365,-0.1032 l 21.6607,-0.4402 c 3.0325,-0.0833 2.287,0.5649 3.2346,2.2136 0.2534,0.4382 0.0221,-0.002 0.3895,0.4507 0.7557,0.9312 1.0772,2.1209 1.6461,3.1535 0.4742,0.8629 1.0851,1.3332 1.4592,2.3344 2.0424,-0.3564 0.8337,0.1547 2.3877,0.9524 0.4237,-1.3295 -0.1721,-1.4241 -0.7949,-2.5985 -0.415,-0.7824 -0.6851,-1.764 -1.0012,-2.2944 -0.3688,-0.6162 -0.3053,-0.2747 -0.6749,-0.9777 -0.1962,-0.3687 -0.3053,-0.7256 -0.5162,-1.1486 -0.4014,-0.8022 -0.7809,-1.5465 -1.1752,-2.105 l -7.5833,-14.4201 v 7.1065 c 0,1.5687 -1.5627,2.8525 -3.4721,2.8525 v 0 c -1.9094,0 -3.4728,-1.2838 -3.4728,-2.8525 v -11.0461 h 4.866 c -3.5062,-8.0135 -3.5388,-6.8958 -3.5062,-8.0135 0.7671,0.0881 51.2555,15.552 51.2555,15.552 0,0 0.5984,17.4302 0.5984,17.4302 0,0 35.7219,14.5488 52.562,23.2166 1.1418,0.5823 3.5487,1.1687 2.8752,2.9228 -0.2568,0.671 -0.4989,0.5409 -1.1645,0.3555 -1.0324,-0.2855 -1.5933,-0.7597 -2.5773,-1.2399 -11.8635,-5.8019 -51.9256,-22.8852 -52.0355,-22.2792 0.006,0.3918 5.1054,13.1573 5.1054,13.1573 -1.2546,-0.0161 -2.4511,-1.0131 -4.7948,-1.7141 L 360.6143,344.3 c -3.3055,-0.9986 -6.4528,-2.1671 -9.5346,-3.1921 -1.5894,-0.5283 -3.5263,-0.8212 -5.0157,-1.3813 -1.6234,-0.6109 -3.1167,-1.165 -4.6907,-1.6526 -1.6107,-0.4969 -3.3506,-1.22 -4.8719,-1.5953 -0.9618,-0.2381 -1.5676,-0.237 -2.5867,-0.4184 -0.9082,-0.1619 -1.4357,-0.735 -2.2949,-0.2999 0.009,-0.9893 1.0245,-0.4269 0.2081,-1.3635 -0.4507,-0.5167 -1.239,-0.2639 -1.9409,-0.0734 -0.1381,1.4142 0.4708,1.218 0.3983,2.9815 -0.0522,1.2478 -0.0468,2.0942 0.0921,3.2233 0.1661,1.3291 -0.106,1.6934 -0.1162,2.9225 -0.0145,1.9709 0.4524,1.4533 -0.9624,2.3624 0.1755,0.5264 0.1568,0.2123 0.4008,0.5955 0.7849,1.23 -0.032,0.7246 0.1514,4.3693 0.0873,1.7669 -0.2208,1.1087 -0.3781,2.5759 -0.1075,1.0145 0.0946,1.8748 0.0133,2.9066 -0.7464,0.7977 -0.1494,0.2455 -1.4633,0.669 -0.0666,0.0238 -0.1301,0.0425 -0.1927,0.0661 l -0.6888,0.3634 c 0.2412,-1.1861 0.3713,-1.3972 -0.7079,-1.8684 l -0.0547,1.5095 c -0.3594,-0.7923 -0.2361,-0.6769 -0.392,-1.4499 l -0.3929,-1.1466 c -1.3586,1.3872 1.4412,0.2962 -0.5369,1.6673 l -0.2789,-1.7272 c -0.9604,-0.3514 -0.739,0.3121 -1.1049,-0.4076 -0.5483,-1.0797 0.2367,-0.6769 -0.6764,-1.1032 -0.6758,0.8484 0.2415,0.9964 -0.5335,1.4641 0.0247,-0.9386 0.2648,-0.9584 -0.1754,-1.5727 -0.7657,0.3694 -0.2781,0.3234 -0.2583,0.9604 0.01,0.3314 0.1327,-0.1055 -0.005,0.6089 -0.1574,0.8169 0.2429,0.006 -0.3019,0.5975 -0.5443,-1.3986 -0.7178,-2.2501 -0.5826,-3.6521 0.065,-0.6571 0.1764,0.0493 -0.1133,-1.0412 0.8112,0.3988 0.3464,0.2874 0.9399,0.5417 -0.4243,-1.0998 -0.1995,-1.2906 -0.1987,-1.2861 0.002,0.034 0.0227,-0.1199 0.0493,-0.174 0.3042,0.1153 0.6435,0.0689 0.8028,1.2611 0.2996,2.245 -0.6021,1.0692 0.6112,1.8743 1.1418,0.7582 0.1661,0.7129 1.2971,1.4105 l -0.3181,-2.1521 c -1.2512,-0.4889 1.137,0.2166 -0.4677,-0.0215 -0.468,-0.0706 -0.7421,-0.0366 -0.9017,-1.1177 0.0542,-0.032 0.1429,-0.0454 0.1769,-0.0522 l 1.0185,-0.0706 c -0.3682,-0.7236 -0.3515,-0.6842 -0.3495,-1.6701 0.2333,0.0955 1.0018,0.4184 1.0309,0.4416 0.3249,-1.6841 -0.2933,-0.7404 -0.5201,-0.7931 -0.3841,-0.0879 -0.957,-6e-4 -0.9919,0.005 -0.5847,1.0312 0.0108,-0.0485 -0.0527,0.8251 l -0.2826,0.9598 c -0.5244,-1.4 0.4102,-1.1126 -0.8552,-2.0409 0.0502,0.0607 0.0896,-0.6222 0.0269,0.1587 l -0.5678,0.4629 c -0.2806,-0.2695 -0.1031,-0.1187 -0.3772,-0.2868 l -0.1055,1.2699 -0.8405,0.1613 c -0.0292,0.002 -0.1312,-0.0573 -0.1519,-0.007 -0.0207,0.0522 -0.1015,0 -0.2237,-0.009 l -0.138,-1.3732 -1.1684,-0.106 c 0.1635,-0.6837 0.6358,-0.667 0.9864,-0.9439 -0.4929,-0.9575 -0.5601,-0.5655 -0.0847,-1.5078 0.2548,-0.5076 0.8178,-0.0793 0.0853,-1.2132 -0.4388,0.6764 0.5802,1.476 -3.0237,1.4338 -0.0428,1.1954 -0.131,1.3048 0.0632,2.3785 -0.0695,-0.5037 -0.2061,-0.7083 -0.5774,-1.2299 -0.1863,0.1981 -0.3578,0.0354 -0.4731,1.3399 -0.1387,-0.7251 -0.2526,-1.7867 -0.707,-2.5092 -1.3706,-0.1165 -1.061,0.2095 -1.7152,0.9686 -0.1908,-0.3988 -0.3269,-0.6157 -0.5236,-0.9964 -0.3583,1.0831 -0.0522,0.4802 -0.805,1.0644 -0.009,-1.15 -0.1282,-0.6749 -0.3909,-1.7634 0.3228,-0.1233 0.7075,-0.2089 1.0184,-0.3254 -0.3327,-0.2174 -1.159,-0.269 -1.4587,-0.7971 0.3249,0.4901 0.4604,3.2128 0.3969,3.7508 -0.8362,-0.296 -0.4261,-0.4187 -1.0063,-0.9635 -0.4589,0.0913 -0.2421,0.0266 -0.6131,0.2381 l -0.5675,0.4442 c -0.1968,-0.2381 -0.3334,-0.4184 -0.707,-0.6985 -0.0315,0.0428 -0.0408,0.1194 -0.0522,0.1488 -0.008,0.0301 -0.036,0.1154 -0.0499,0.1528 l -0.6315,0.5567 c -0.0306,-0.062 -0.1162,-0.2588 -0.1474,-0.32 -0.2821,-0.5737 0.0499,-0.1346 -0.3209,-0.6009 -0.004,0.8756 0.2208,1.1639 -0.2381,1.7535 -0.4082,-0.4176 -0.6557,-1.8014 -0.6823,-2.5778 -0.0567,-1.5849 0.1641,0.0207 0.3155,-1.2768 l -0.3147,-1.3099 c -0.0147,0.0349 -0.0581,-0.1278 -0.1009,-0.1819 0.0581,-0.7509 -0.17,-2.1036 -0.502,-2.674 -0.841,-0.2613 -2.4585,-0.318 -3.3148,-0.0212 -0.2376,0.8291 -0.1454,1.828 0.1145,2.5237 0.1256,1.6426 -0.1392,2.0429 1.3482,2.4412 2.1668,0.5794 0.3254,0.3687 1.7058,1.1072 0.3042,0.1627 0.1982,0.0453 0.5743,0.1814 l -0.0632,1.7714 c -0.4076,-0.4111 -0.2695,-0.7016 -0.5811,-1.446 -1.3844,0.0414 -0.5989,1.0111 -1.2492,-0.0921 l -0.5309,1.0051 -0.7144,-0.7457 c -0.2205,0.7211 0.2691,0.9592 -2.6549,1.3526 l 0.006,-1.3132 -0.413,-0.218 c -0.5213,0.2086 -0.677,0.1774 -1.0616,0.5181 -0.4249,-0.4694 0.0479,-1.2685 0.0485,-1.2931 -0.6307,-0.2563 -0.639,-0.0193 -0.7348,-0.042 -1.0499,-0.2562 -0.0246,-0.7772 -0.8473,-1.5409 -0.5615,0.9879 0.1537,0.7804 0.2923,2.0543 l -0.6497,0.4175 c -0.0567,0.0301 -0.2979,0.1069 -0.3954,0.1914 l 0.136,1.4221 c -1.4238,-0.5003 -1.4953,0.2047 -1.8921,-1.2093 -0.1902,0.6084 -0.2208,0.4116 -0.4309,1.1444 l -4.1411,-0.2574 c -0.5522,0.0862 -0.5216,0.1355 -0.8538,0.2322 -1.8088,0.5354 -1.69,-0.1041 -3.4741,0.068 -1.2637,0.1227 -2.2216,0.0507 -3.3889,0.1636 -0.5221,-0.5571 0.3303,0.2293 -1.0156,-0.0942 -1.4139,-0.3401 -4.0686,0.2101 -5.9392,0.1973 -0.0447,0 -0.1142,-0.002 -0.1596,-0.004 l -2.2441,-0.006 c -1.2612,0.1287 -2.4917,0.0454 -3.8172,0.1381 -3.3318,0.2327 -2.425,-0.0494 -3.1371,-0.0681 l -3.8117,0.1154 c -0.9111,0.036 -1.0024,0.2174 -1.8394,0.1721 -0.5324,-0.0292 -1.0171,-0.154 -1.7048,-0.1449 -4.6006,0.0595 -1.6642,0.3169 -3.0693,-0.502 -1.5608,1.3252 -1.7462,0.7523 -3.3908,0.7435 l -5.2064,-0.1168 c -1.179,0.1562 -0.5361,0.3702 -2.022,0.3515 0.3847,1.2413 0.1327,0.9352 -8e-4,1.0732 -0.4003,-0.3707 -0.2549,-0.5615 -0.7898,-1.0071 -0.71,-0.1066 -0.6947,-0.3561 -1.5125,-0.188 -0.1781,0.0366 -0.531,0.2248 -0.6849,0.2968 -0.8725,0.4136 -0.2109,0.0873 -1.474,-0.0981 -0.5871,-0.0873 -1.1452,-0.005 -1.7354,-0.007 0.2013,0.775 0.8663,0.9612 -0.0606,1.7767 -0.3657,-0.5088 -0.7104,-1.6687 -1.34,-1.9794 -0.7483,-0.3708 -1.8068,-0.7883 -2.0182,-0.0354 l -1.7122,-0.1829 c -0.6876,0.6392 -1.2758,0.6324 -2.283,0.2929 -0.248,-0.4034 0.3895,-0.2087 -0.5547,-0.3062 -0.8385,-0.0859 -0.5684,0.1695 -0.6137,0.2089 -0.9771,0.11 -1.0585,0.003 -1.6121,-0.0167 l -3.4381,0.519 c 0.2401,0.8683 -0.4128,-0.3603 0.2633,0.3093 0.5329,0.5264 -0.0499,-0.9136 0.4476,0.3988 l -0.8269,0.6438 c -0.3957,-0.2376 -1.0131,-0.0641 -1.6849,-0.0956 0.0167,0.9012 0.1281,0.4496 0.3875,1.3434 -1.1029,0.5522 -0.5448,0.0467 -0.8637,1.093 -0.5462,1.7915 0.5369,-0.5783 -0.3121,0.5457 l 0.4708,1.8428 c 9e-4,0 0.5483,-0.1066 0.5511,-0.1066 0.0706,-0.0187 0.2968,-0.0694 0.362,-0.095 0.6216,-0.2358 0.2375,0.277 0.5731,-0.3906 0.2515,0.9357 -0.2423,0.8022 0.5508,1.2518 -0.4575,0.1868 -1.0959,0.2228 -1.4165,0.6803 l -0.1176,0.2815 c -0.2866,0.7971 0.3648,-0.0694 -0.1386,0.665 l -1.4341,-0.3401 c 0.4357,-0.6784 1.1906,-0.2149 0.4604,-1.9497 l -0.7937,-1.7467 c -0.1894,-0.529 -0.3288,-1.23 -0.5664,-1.7314 0.3855,-0.7716 0.2449,-0.2687 0.4896,-0.9998 l -0.6375,0.3583 c -0.1321,-0.5304 -0.4763,-1.158 -0.6829,-1.5134 -0.523,-0.8963 -0.235,-0.5704 -1.4607,-0.7197 -0.0241,-1.2632 0.3668,-0.821 -0.4589,-1.3578 -0.3033,0.5255 0.3682,1.5766 -0.2362,2.7071 -0.6321,-0.3515 -0.2953,-0.4576 -0.6607,-1.3607 -0.9899,0.4482 -0.7365,0.0167 -0.5896,1.0698 0.2327,1.6623 0.2233,0.9953 -0.1021,1.8148 l -0.5363,0.0793 c -0.5063,-0.7049 0.6183,-0.5482 -0.4722,-0.5482 0.3087,0.3164 0.5802,0.743 0.4963,-0.2954 -0.0794,-0.9643 -0.4711,-0.5624 -0.4844,-0.5655 -1.5511,-0.3194 -0.9584,0.3408 -0.671,1.3125 -0.2112,-0.3294 -0.1258,-0.1126 -0.2701,-0.3107 l -0.5009,-1.0398 -1.4159,0.3629 c -0.0493,0.005 -0.1174,0.005 -0.1681,0.003 l -0.6696,0.2316 c 0.1622,0.328 0.0995,-0.0595 0.0842,0.5355 -0.9218,0.6542 -0.5111,0.1153 -0.7906,1.0417 1.3967,-0.3821 1.7482,-0.2707 1.378,-1.588 l 1.0706,0.1287 c 0.114,1.3541 -0.7863,0.707 -0.3835,1.787 0.659,-0.4357 0.3121,-0.3155 0.8518,-0.9312 0.2772,1.2773 0.3112,0.6457 -0.2784,1.1038 -1.171,0.9111 -2.611,-0.9618 -3.1359,0.9992 3.6028,0.2427 2.7813,-1.0233 3.4622,0.5256 -0.2149,0.0371 -0.1641,-0.3297 -0.8297,0.2486 l -0.3427,0.5377 1.6546,-0.0201 0.2089,-1.2365 c 0.7336,-0.2069 0.4399,-0.3603 1.0023,0 -0.3313,1.1438 -0.8563,-0.9539 -0.447,1.1279 0.271,1.3765 -0.6823,-0.1956 0.239,0.4102 -0.239,0.7154 -1.2572,0.3968 -1.9075,0.3866 0.0207,0.5584 0.2353,0.978 -0.0394,1.4241 l -0.5944,-1.7027 -1.2005,0.7143 c 1.1325,0.8036 0.9638,-0.8065 1.1339,0.9442 l -0.2106,-0.0105 c -0.0187,-0.002 -0.0902,-0.009 -0.1123,-0.0113 l -0.2486,-0.0227 c -0.5658,0.0133 -0.0329,-0.0473 -0.621,0.0992 -1.7201,0.4283 -3.0167,-0.0913 -4.9389,-0.3707 0.4057,-1.0945 -0.7548,-0.7376 1.014,-0.7611 -0.6551,-0.0712 -0.8997,-0.252 -1.26,-0.576 l 0.9658,-0.4669 -0.4162,-0.8326 c -0.2789,0.7963 0.0227,0.4244 -1.2418,0.4655 0.2574,0.5885 0.0238,-0.0119 0.3073,0.5751 0.0773,0.1594 0.14,0.0701 0.2015,0.4488 0.0227,0.14 0.0754,0.1635 0.1074,0.2489 -0.2608,-0.0409 -0.917,-0.1721 -0.9232,-0.1721 -0.4309,-0.002 -0.1466,-0.2194 -0.2846,0.2061 0.8356,0.1981 1.3592,0.0133 1.6047,0.9431 -1.2152,0.6009 -2.7485,0.1454 -3.8792,-0.0349 0.2435,-1.5965 -0.3748,-0.6662 0.7438,-1.1444 -1.4253,-0.4028 -0.7044,0.5556 -2.3485,0.1134 0.303,1.6501 -0.0434,0.7209 -0.6321,1.4647 -5.8465,-3.2621 -3.1981,-5.836 -7.2326,2.1968 -1.3006,-0.5663 -2.4211,-1.5732 -3.8637,-2.2909 -1.1866,-0.5882 -2.5636,-1.3567 -3.941,-2.1637 -1.273,-0.7444 -2.6376,-1.9769 -4.2939,-1.9902 0.0374,0.0567 0.0969,0.1213 0.1301,0.1542 0.0326,0.0332 0.0927,0.1074 0.1335,0.1474 0.5661,0.5502 1.4298,0.7217 1.8794,1.4253 -0.8249,0.3954 -1.4701,-0.6222 -1.9908,-1.0452 -0.7957,-0.6483 -1.2798,-0.487 -2.135,-1.1486 -1.4386,-1.1112 -0.2373,-0.6216 -2.3216,-1.2245 -1.0264,-0.2968 -1.0619,-0.7495 -1.999,-1.2277 -0.2999,0.3826 0.2143,0.8529 -0.4708,1.1625 -0.7997,-0.5103 -0.1021,0.0725 -0.4856,-0.7251 -0.1327,-0.2761 -0.1466,-0.4448 -0.3733,-0.8238 -0.7626,-1.2764 -2.6499,-2.4744 -4.0071,-2.8837 0.292,2.1762 1.6586,2.5036 2.4097,4.2724 -0.7285,0.0822 -1.2038,0.0306 -1.953,0.1006 -0.0258,0.003 -0.6795,0.0788 -0.7316,0.0862 l -0.6489,0.1514 c 0.0706,1.1857 0.4748,1.2693 1.3898,1.7867 l -0.3206,0.6284 c -2.7059,-0.2707 -2.2972,-1.3448 -4.1326,-1.7935 -0.0125,1.6294 -0.0913,1.2198 0.7812,2.2638 2.1348,2.5537 2.5963,5.9677 6.7269,4.2777 1.3933,-0.5717 3.9002,0.2427 4.7719,0.991 -2.079,0.1109 -3.6888,0.3742 -5.7878,0.3697 -2.0676,-0.005 -3.7015,0.4674 -4.9555,-0.8584 l -0.4729,0.6622 c -2.8131,-0.072 -14.7588,0.671 -16.2048,-0.1307 0.6415,-0.9904 4.0082,-0.2755 5.3467,-0.3475 0.6945,-0.0394 1.1526,-0.2435 1.8817,-0.2347 1.1344,0.0133 0.8209,0.3441 2.0741,0.1618 0.4688,-0.0671 1.0593,-0.3506 1.7169,-0.3733 0.775,-0.0261 1.9914,0.3989 2.8605,0.3422 0.0541,-0.003 0.1287,-0.0148 0.1774,-0.0221 l 0.4921,-0.182 c -0.6094,-0.449 -2.717,-1.4653 -3.6235,-1.8202 l -3.7403,-1.6826 c -0.8723,-0.3257 -1.0211,-0.6738 -1.7601,-1.0259 -3.4594,-1.6506 -4.4291,-2.1977 -5.034,-1.8768 0,0 -10.8028,11.3437 -10.8028,11.3437 0,0 44.3012,21.2372 44.3012,21.2372 0,0 18.1313,-3.5071 18.1313,-3.5071 -0.9199,-2.0987 -1.5676,-1.0856 -2.7652,-1.9114 -0.7152,-0.4935 0.0218,-0.1493 -0.5925,-0.5802 l -1.5987,-0.7603 c -1.1532,-0.8399 -3.21,-0.9051 -4.5672,-1.3546 l -1.5208,-0.8544 c -0.6936,-0.5077 -0.106,-0.6077 -0.3628,-1.2764 -0.5962,-0.201 -0.7036,-0.1582 -1.2405,-0.4031 -2.0636,-0.9377 -2.3255,-0.5188 -2.9171,-0.8703 -1.1653,-0.6936 -2.874,-1.1571 -4.2032,-0.7922 -0.1902,-0.6118 0.1465,0.3072 -0.04,-0.4491 -0.1094,-0.4388 0.003,-0.2066 -0.1961,-0.5048 -1.6288,0.6749 -1.2425,-0.0139 -1.6515,-1.0038 -1.6832,-0.0433 -3.2573,0.1514 -4.2846,-1.0063 -0.0312,-0.0368 -0.0725,-0.0929 -0.1066,-0.1295 l -0.8243,-1.1004 c -0.913,-2.2958 -0.4949,-0.1287 -4.3265,-1.7362 l -2.9475,-1.5767 c -0.7735,-0.428 -1.591,-0.4589 -1.8606,-0.9195 0.7937,-0.2968 3.2499,0.3166 4.017,0.8977 l 1.6007,1.135 c 0.1389,-0.324 -0.3682,-0.4456 0.7376,-1.2878 0.5051,-0.3863 1.006,-0.9232 1.4108,-1.1914 1.021,-0.6789 3.3006,-0.4532 4.7072,-0.318 1.7422,0.1686 4.5541,0.9686 6.1308,1.7501 1.2891,0.6375 0.5694,0.102 1.7812,0.068 l 0.2829,0.8365 c 1.226,2.8925 5.8726,-10.9462 10.6626,0.1021 13.183,-0.4969 173.7663,-4.3915 175.4977,-3.4745 0.635,-0.3653 0.3555,-2.2314 0.7585,-2.7864 l 0.2815,-0.4847 c 0.4768,0.3194 0.1474,0.0912 0.3906,0.3441 l 0.3164,0.4136 c 0.6128,-0.6985 0.176,-0.6886 1.019,-0.5358 l 0.4989,0.1769 c 0.5276,0.2693 0.6242,0.6316 1.4327,0.9403 0.3387,0.1281 0.1893,0.032 0.5374,0.1754 l 3.168,1.7754 c 0.2234,0.1474 0.6265,0.4356 0.8578,0.5709 1.2024,0.7063 2.9285,1.4261 4.0824,2.0423 1.4046,0.7518 2.255,1.6166 3.7296,2.2658 l 0.1193,0.8875 c -0.5655,-0.4113 -0.1618,-0.1982 -0.8297,-0.36 -0.6307,-0.1542 -0.5048,0.142 -1.0063,-0.2755 l -0.3934,-0.3654 c -0.631,0.6208 -0.1588,0.3634 -0.7025,0.7075 0.0627,-1.1931 0.3116,-1.6861 -1.195,-1.9381 -0.0794,-0.0136 -0.1321,-0.0187 -0.2149,-0.028 h -0.9422 c -0.5718,0.028 -0.8164,0.0519 -1.41,0.1494 l -0.1942,0.7208 -0.5329,-0.8011 c -1.3827,-0.0104 -0.1207,0.2537 -2.6898,0.0995 -0.0113,0 -0.5955,-0.0241 -0.6743,-0.0212 l -1.2793,0.2307 c -0.116,0.7248 -0.0346,0.2628 0.007,0.807 0.0572,0.7164 0.1153,-0.4603 0.1054,0.9224 -0.9884,-0.5448 -1.4179,0.0519 -1.4306,0.0907 -0.0287,0.082 -0.1021,0.0888 -0.1622,0.1168 l 0.2469,-1.1012 c 0.959,-0.2228 0.6542,0.3549 0.6276,-0.8538 l -1.4706,0.2069 c -1.0279,0.1607 -0.8617,-0.3895 -0.9573,-0.2001 -0.0272,0.0547 -0.1071,-0.0853 -0.1805,-0.1194 l -0.0375,1.5914 -1.5454,0.1554 c -0.0533,-0.7365 0.7217,-0.3155 0.1162,-1.2654 -0.379,-0.5947 -0.9686,-0.3167 -1.764,-0.3688 -0.0295,1.0278 0.0525,1.1426 -0.3804,1.688 -0.4235,-1.2725 0.4864,-0.6568 -0.5675,-1.3912 l -0.1386,0.413 c -0.1936,0.919 0.0958,1.4085 -0.0147,2.3649 -0.281,0.216 0.4529,0.4269 -0.5443,0.0581 l -0.1361,-1.1718 c -0.0354,-0.0133 -0.2361,-0.1522 -0.7236,-0.1987 -1.2966,-0.1242 -0.1508,0.5207 -1.7289,0.0499 l -0.0573,1.2926 c -1.5392,0.0173 -0.006,-0.1494 -0.6681,-1.2759 -0.5782,0.4482 -0.417,0.6049 -0.4116,1.2645 0.003,0.4462 0.005,1.2838 -0.0433,1.5826 -0.0428,0.0207 -0.1168,0.0261 -0.1395,0.0306 -0.9697,0.1982 -0.5848,0.2829 -1.0043,-0.0306 0.2514,-0.4487 0.4907,-0.4068 0.8583,-0.7061 0.034,-1.1733 -0.0774,-2.0123 -0.2687,-2.8321 0.5414,-0.0774 0.1372,0.523 1.7141,-0.1859 -0.5097,-0.3975 0.4595,0.1981 -0.5304,-0.3884 -0.1468,-0.0864 -0.4028,-0.2112 -0.5349,-0.2545 -0.4436,-0.1483 -0.8282,-0.1455 -1.2744,-0.1701 -0.239,1.1078 0.1153,1.2379 -0.0927,2.3122 -1.1285,-1.6807 0.839,-2.4636 -1.4114,-2.2822 -2.101,0.1727 -1.7714,0.4867 -1.7195,1.6767 -0.0572,0.04 -0.1454,0.0692 -0.1888,0.0947 -0.9501,0.5315 -0.5981,0.1687 -0.8161,0.6128 0.4462,0.3748 0.953,0.1347 1.5038,0.3649 0.3155,-1.1112 0.0241,-1.2498 0.2602,-2.0929 l 0.2282,0.0607 c 0.917,0.2095 0.3821,-0.1808 1.3224,0.1641 l -0.176,1.3839 c -0.8949,-0.5536 -0.154,-0.3061 -1.0131,-0.7458 l 0.0294,1.7249 c 0.7937,-0.2475 0.2855,-0.6137 1.2266,-0.9771 -0.5196,2.291 0.0666,1.8354 -0.1009,3.8818 1.2827,-0.3742 0.1916,0.0705 0.9691,-0.461 -0.034,0.9102 -0.0853,0.1415 -0.8095,1.1279 l 0.1834,1.2331 c -0.1296,0.0374 -0.631,0.0967 -0.6523,0.1046 -0.6092,0.2515 -0.2188,-0.2225 -0.5491,0.4391 -0.2508,0.5009 0.0573,0.6602 0.0596,1.48 -0.7104,-1.1719 -1.1472,0.2367 -2.6714,0.9161 -0.0434,0.0187 -0.1114,0.0542 -0.1519,0.0689 -0.0369,0.0133 -0.1061,0.0454 -0.1395,0.0547 -0.4456,0.1041 -0.4487,-0.0207 -0.629,-0.4668 0.9677,-0.4536 0.9717,0.0266 0.9405,-1.3955 -0.0842,-3.7361 -2.5137,-1.5625 -3.4962,-2.5158 l -0.3308,-1.347 c -0.008,0.0312 -0.0253,-0.1194 -0.0533,-0.1721 -0.8518,0.256 -0.6784,0.2767 -0.4541,1.1364 0.9008,3.4696 -0.2475,2.71 1.1531,4.5026 -1.957,0.1627 -2.2623,-1.4885 -2.1016,-3.278 l 4.3004,-0.5502 c 0.1089,-0.7004 -3.3508,-2.9373 -4.9442,-3.3143 -0.0666,-0.0144 -0.1641,-0.0218 -0.2199,-0.0326 l -0.4476,-0.0527 c -0.3107,-0.777 -0.1534,-1.4519 -0.7095,-1.7288 -0.2702,-0.1353 -0.3776,0.0742 -0.8524,0.1207 -1.4034,0.1375 -0.5936,-0.4093 -2.3156,-0.2412 -1.042,0.1006 0.1332,-0.0162 -0.5505,0.0986 l -0.8884,0.18 c -0.0453,0.0119 -0.108,0.0355 -0.1573,0.0482 -0.0508,0.0125 -0.112,0.0346 -0.1681,0.0465 -0.7021,0.1508 -0.4555,0.1128 -1.1171,0.1261 -0.637,-0.314 -0.4329,-0.2406 -1.1665,-0.06 l -0.3155,-1.1812 c 1.156,-0.2007 0.887,0.1561 1.2325,-0.5383 l -1.2818,-0.0686 c -1.7195,0.3509 -0.3895,0.0221 -1.7422,-0.005 -1.514,-0.03 -0.8036,1.2232 -1.4145,-0.1621 -0.0754,0.074 -0.1667,0.1488 -0.2296,0.2208 l -0.4773,0.701 c -0.3028,-0.7211 -0.008,-0.3475 -0.4717,-0.8884 -0.9732,0.0372 -0.987,-0.026 -1.4018,0.292 -1.6449,-0.038 -2.6053,0.2869 -4.1366,0.1035 -1.0924,-0.1321 -3.05,-0.4082 -3.6501,0.5133 -0.1367,0.7005 0.5196,0.5423 1.0111,1.2413 0.4754,0.6764 0.7084,0.4289 1.336,1.1152 1.2265,1.3413 0.4328,0.7897 2.3995,2.3371 l 0.7809,0.4266 c 0.6103,0.3836 0.3643,0.1134 0.6004,0.8391 -1.2132,-0.0992 -0.7143,-0.0133 -1.3785,-0.5862 -1.1259,-0.9731 -5.8459,-5.3742 -6.9877,-5.2475 0.0392,0.9544 1.213,1.8008 1.9982,2.459 2.6149,2.1924 13.8433,12.1839 15.3326,13.0111 1.017,0.566 1.6495,1.4799 2.7193,1.5165 -0.0216,-1.0998 -1.6742,-2.1824 -2.5566,-2.8859 -0.4777,-0.3807 -1.0412,-0.8071 -1.6101,-1.2371 -0.5743,-0.4357 -0.9978,-0.7877 -1.4939,-1.3133 -1.2585,-1.3379 -5.2015,-3.5416 -5.7753,-5.2458 1.3522,0.3169 1.6249,0.9785 2.6031,1.8264 0.7152,0.6182 1.5469,1.3306 2.3899,1.8374 0.5403,0.3254 4.5292,4.4011 6.8029,5.9519 0.9209,0.629 0.9377,0.3121 1.5888,0.5349 l 0.5853,0.3368 c 0.0335,0.0212 0.0862,0.0694 0.1202,0.0873 l 1.4834,0.282 c 1.0437,-0.0164 0.4246,-0.248 1.6166,-0.5635 1.0431,-0.2761 0.8144,0.5576 2.1189,0.4677 1.1571,-0.0782 0.3742,-0.2554 1.4386,-0.5757 0.007,6e-4 1.0099,0.953 4.9447,0.5491 0.275,-0.4989 0.1897,-0.5216 0.5763,-0.976 0.6684,0.7523 0.2262,1.3507 4.3605,0.9111 2.9628,-0.3155 11.7213,0.0561 14.8947,-0.1208 4.6179,-0.2574 36.0034,0.0935 36.1301,0.0156 0.8597,-0.8192 2.7485,-27.6041 2.9534,-30.7613 0.4142,-0.8518 2.6456,-1.4587 3.4988,-1.9488 l 11.1288,-5.171 c 2.4429,-1.2325 4.9201,-2.1597 7.4744,-3.3721 2.3879,-1.1327 4.8169,-2.3919 7.1986,-3.4217 l 14.5797,-6.8788 c 1.0945,-0.6242 2.617,-1.1653 3.7202,-1.7107 1.3119,-0.6511 2.0061,-1.2033 3.4807,-1.9508 2.1489,-1.0899 4.8501,-0.8399 4.0257,-4.0247 -0.3214,-1.2395 -0.5227,-0.6514 -1.7821,-0.8316 -0.8963,-1.7272 -0.8294,-13.307 -0.8294,-13.307 0.813,0.0768 31.8628,-8.9966 43.5654,-12.7715 0,0 0.3075,0.3776 0.007,-0.6922 0.1122,-0.3515 0.4022,-71.0575 0.4022,-71.0575 l -72.8742,0.1735 z m 295.3542,53.5365 h 15.0613 v -17.1595 h -15.0613 z m -23.6474,0 h 15.0599 v -17.1595 h -15.0599 z m -28.2736,0 h 15.0599 v -17.1595 h -15.0599 z m -23.6489,0 h 15.0613 v -17.1595 h -15.0613 z m 83.1007,24.4225 v 0 c 4.4277,0 8.0487,-3.6423 8.0487,-8.0929 V 288.5298 H 742.574 v 10.2538 c 0,4.4506 3.621,8.0929 8.0495,8.0929 z m -23.6483,0 v 0 c 4.428,0 8.0496,-3.6423 8.0496,-8.0929 v -10.2538 h -16.0997 v 10.2538 c 0,4.4506 3.623,8.0929 8.0501,8.0929 z m -28.2736,0 v 0 c 4.4274,0 8.0501,-3.6423 8.0501,-8.0929 v -10.2538 h -16.0996 v 10.2538 c 0,4.4506 3.6224,8.0929 8.0495,8.0929 z m -23.648,0 v 0 c 4.4277,0 8.0501,-3.6423 8.0501,-8.0929 v -10.2538 h -16.1005 v 10.2538 c 0,4.4506 3.6229,8.0929 8.0504,8.0929 z m -59.5412,12.9381 v 0 c 1.8482,0 3.3622,-1.2432 3.3622,-2.7612 v -10.6931 h -6.7229 v 10.6931 c 0,1.5188 1.512,2.7612 3.3607,2.7612 z m -9.4989,0 v 0 c 1.8476,0 3.3596,-1.2432 3.3596,-2.7612 v -10.6931 h -6.7215 v 10.6931 c 0,1.5188 1.5132,2.7612 3.3619,2.7612 z m -16.0648,0 v 0 c 3.0872,0 5.6132,-1.2432 5.6132,-2.7612 v -10.6931 h -11.2278 v 10.6931 c 0,1.5188 2.5274,2.7612 5.6146,2.7612 z m -14.3855,0 v 0 c 3.088,0 5.6143,-1.2432 5.6143,-2.7612 V 306.3603 H 569.95 v 10.6931 c 0,1.5188 2.5251,2.7612 5.6132,2.7612 z m -14.3856,0 v 0 c 3.0881,0 5.6132,-1.2432 5.6132,-2.7612 v -10.6931 h -11.2269 v 10.6931 c 0,1.5188 2.5257,2.7612 5.6137,2.7612 z m -18.8549,0 v 0 c 1.8488,0 3.3616,-1.2432 3.3616,-2.7612 v -10.6931 h -6.7209 v 10.6931 c 0,1.5188 1.512,2.7612 3.3593,2.7612 z M 420.537,308.7145 v 0 c 5.3016,0 9.6381,-4.3371 9.6381,-9.6387 V 261.7509 H 410.898 v 37.3249 c 0,5.3016 4.3373,9.6387 9.639,9.6387 z m 78.7873,-15.0597 v 0 c 3.6022,0 6.548,-2.9474 6.548,-6.5488 v -25.3551 h -13.0955 v 25.3551 c 0,3.6014 2.9472,6.5488 6.5475,6.5488 z m -103.0184,0 v 0 c 3.5994,0 6.5474,-2.9474 6.5474,-6.5488 v -25.3551 h -13.0958 v 25.3551 c 0,3.6014 2.9475,6.5488 6.5484,6.5488 z m -18.2801,0 v 0 c 3.6017,0 6.5475,-2.9474 6.5475,-6.5488 v -25.3551 h -13.095 v 25.3551 c 0,3.6014 2.9472,6.5488 6.5475,6.5488 z m 85.3217,0 v 0 c 3.602,0 6.548,-2.9474 6.548,-6.5488 v -25.3551 h -13.0963 v 25.3551 c 0,3.6014 2.948,6.5488 6.5483,6.5488 z m -18.2801,0 v 0 c 3.6017,0 6.5489,-2.9474 6.5489,-6.5488 v -25.3551 h -13.0969 v 25.3551 c 0,3.6014 2.9472,6.5488 6.548,6.5488 z m -110.1449,0 v 0 c 3.6022,0 6.5483,-2.9474 6.5483,-6.5488 V 261.7509 H 328.375 v 25.3551 c 0,3.6014 2.9475,6.5488 6.5475,6.5488 z m -202.6214,22.6798 v 0 c 6.4327,0 11.6958,-5.2631 11.6958,-11.6964 V 289.8224 H 120.604 v 14.8158 c 0,6.4333 5.2636,11.6964 11.6971,11.6964 z m 48.2916,-35.6707 h 8.7336 v -14.1162 h -8.7336 z m -16.6547,0 h 12.3894 V 266.5477 H 163.938 Z m -13.6085,0 h 8.7338 v -14.1162 h -8.7338 z m -44.4138,0 h 8.7332 v -14.1162 h -8.7332 z m -16.6553,0 h 12.3894 V 266.5477 H 89.2604 Z m -13.6085,0 h 8.7338 v -14.1162 h -8.7338 z m 104.9408,28.12 h 8.7336 v -14.116 h -8.7336 z m -16.6547,0 h 12.3894 v -14.116 H 163.938 Z m -13.6085,0 h 8.7338 v -14.116 h -8.7338 z m -44.4138,0 h 8.7332 v -14.116 h -8.7332 z m -16.6553,0 h 12.3894 v -14.116 H 89.2604 Z m -13.6085,0 h 8.7338 v -14.116 h -8.7338 z m 152.7888,11.5617 v 0 c 1.9088,0 3.4707,-1.2838 3.4707,-2.8525 V 306.447 h -6.9437 v 11.0461 c 0,1.5687 1.5622,2.8525 3.473,2.8525 z m 77.4666,0 v 0 c 1.9103,0 3.4716,-1.2838 3.4716,-2.8525 V 306.447 h -6.9438 v 11.0461 c 0,1.5687 1.5628,2.8525 3.4722,2.8525 z m -16.5943,0 v 0 c 3.1907,0 5.7997,-1.2838 5.7997,-2.8525 V 306.447 H 283.513 v 11.0461 c 0,1.5687 2.6113,2.8525 5.8,2.8525 z m -14.8612,0 v 0 c 3.1901,0 5.8,-1.2838 5.8,-2.8525 V 306.447 h -11.6 v 11.0461 c 0,1.5687 2.6093,2.8525 5.8,2.8525 z m -14.8603,0 v 0 c 3.1887,0 5.7977,-1.2838 5.7977,-2.8525 V 306.447 h -11.5977 v 11.0461 c 0,1.5687 2.6099,2.8525 5.8,2.8525 z m -19.4786,0 v 0 c 1.9103,0 3.4722,-1.2838 3.4722,-2.8525 V 306.447 h -6.9435 v 11.0461 c 0,1.5687 1.5625,2.8525 3.4713,2.8525 z m -106.3165,24.8315 c -1.0298,-0.6925 -1.3198,-0.1803 -1.3479,-0.171 -0.3815,0.8045 -0.1408,0.7532 -0.0379,1.855 -0.633,-0.5998 -0.559,-1.2106 -0.781,-1.9961 -1.7702,0.1573 -2.5807,-0.027 -4.0379,0.2007 -0.9097,0.1559 0.0615,0.6803 -1.416,0.0538 -0.005,0.8618 0.1888,0.7285 -0.2361,1.3128 -0.5802,-0.7305 0.1001,-0.5449 -0.7084,-1.236 -0.4413,0.6931 -0.0558,0.6591 -0.1179,1.5401 -0.915,-0.0221 -0.1942,-0.0221 -1.0644,-0.4436 -0.2894,1.7708 0.8702,1.328 0.2608,2.5605 -0.3288,-0.7577 -0.3328,-0.9371 -0.627,-1.9241 -0.6123,-2.0577 -0.1987,-1.2059 -0.8697,-1.7048 -0.2968,-0.2815 0.5196,-0.3628 -0.8529,-0.2815 -1.1313,0.0672 -0.2863,0.1761 -0.838,0.2787 -0.606,0.1128 -0.7421,-0.2461 -1.5026,-0.2733 0.167,1.0811 0.2443,-0.028 0.7276,1.5392 0.421,1.3646 4.4127,9.2866 5.2405,9.5928 0.2755,-1.0358 -0.2194,-2.0795 -0.5463,-3.1272 -0.3455,-1.1132 -0.2401,-1.6382 -0.9898,-2.6365 -0.4655,0.8637 0.1902,0.6862 0.2321,2.071 -0.7455,-0.6305 -2.3289,-6.0653 -1.8847,-6.9945 0.6389,0.9456 0.6928,2.8119 0.9243,4.1706 1.4854,0.1865 0.2362,0.0385 1.3686,-0.1675 0.3909,1.053 0.4082,1.1298 0.7143,2.2215 l 0.3014,0.8705 c 0.4096,1.1424 -0.2427,0.3475 0.4056,0.9751 -0.1528,0.3988 0.1627,0.358 0.0533,-0.4215 -0.1746,-1.2467 -1.5406,-3.8591 -0.2475,-3.5929 0.0114,0.0473 0.0275,0.1179 0.0454,0.2007 l 0.003,0.0161 0.002,0.004 0.009,0.0439 10e-4,0.006 0.008,0.0354 v 0.002 10e-4 l 0.005,0.0179 0.001,0.005 0.002,0.0145 0.003,0.009 0.002,0.009 0.003,0.0147 8e-4,0.005 0.005,0.0198 0.004,0.0202 9e-4,0.002 0.005,0.0182 8e-4,0.006 0.008,0.0354 0.002,0.0148 0.001,0.006 0.008,0.042 0.002,0.002 0.004,0.0173 0.002,0.009 0.003,0.0134 0.002,0.0113 0.001,0.009 0.004,0.0167 0.001,0.005 0.005,0.0207 v 0 l 0.003,0.0207 0.002,0.004 0.003,0.0167 0.002,0.008 0.003,0.0128 0.003,0.0133 0.001,0.008 0.005,0.0167 v 0.002 l 0.005,0.0212 6e-4,10e-4 0.004,0.0188 8e-4,0.006 0.004,0.0153 0.002,0.009 0.002,0.01 0.002,0.0147 0.003,0.005 0.003,0.0173 v 0.003 l 0.009,0.038 0.002,0.008 0.003,0.0113 0.003,0.009 0.002,0.01 0.003,0.0133 6e-4,0.003 0.004,0.0187 v 6e-4 l 0.009,0.0354 6e-4,0.007 0.003,0.0108 0.002,0.009 0.001,0.007 0.003,0.0133 5e-4,0.003 0.004,0.0162 v 0.002 l 0.004,0.0139 0.002,0.003 0.001,0.0114 0.002,0.007 0.002,0.009 0.001,0.009 0.002,0.004 0.003,0.0128 v 10e-4 l 0.003,0.0139 v 0.001 l 0.003,0.0105 6e-4,0.005 0.003,0.007 6e-4,0.006 0.002,0.006 0.002,0.007 6e-4,0.004 0.003,0.01 v 0 l 0.003,0.009 v 0.003 l 0.003,0.008 5e-4,0.003 0.002,0.005 0.003,0.005 v 0.003 l 0.003,0.006 v 0.001 l 0.003,0.006 c 0.6925,1.942 1.9562,-0.0414 1.9261,2.505 -1.3612,-0.4862 -0.3327,-0.4689 -1.2398,-1.0245 -0.1446,2.2425 0.4096,1.2133 1.2285,1.332 l 0.5598,0.2407 c 0.0638,-1.7067 -0.6377,-1.6441 -0.1576,-2.3304 1.6056,1.9596 -0.3894,1.51 1.2547,2.1952 0.144,-0.6132 -0.2175,-1.3581 -0.387,-2.0611 1.9202,0.7464 0.8243,3.5243 2.1651,4.5468 -0.006,-1.0191 0.0134,-1.44 -0.3461,-2.3023 0.7543,-0.8439 0.7101,-0.0814 0.9142,-1.1994 0.0728,-0.3909 -0.0539,-1.1304 -0.1599,-1.4799 -0.4184,-1.3706 -1.0017,-1.2178 0.1001,-2.0602 l 0.5408,4.9427 c 0.1313,0.5729 -0.0306,0.1942 0.2333,0.5576 -0.3007,1.1625 0.5009,15.042 0.3864,15.7303 -0.3711,2.2442 -4.6049,-3.9404 -5.3371,-4.7602 -1.8161,-2.0356 -2.8239,-3.985 -4.82,-6.0319 l -7.0606,-9.2214 c -0.4821,-0.5496 -1.9981,-2.1636 -2.0307,-3.3227 2.7057,-1.9701 1.7215,-0.663 2.1056,-5.6118 0.2426,-3.1158 1.4371,-11.9216 0.532,-14.6228 -0.2987,-0.8918 -3.4766,-2.658 -4.5479,-3.4143 -2.6458,-1.8675 -2.2337,-1.7821 -7.4318,1.6614 l -8.839,4.8175 c -0.6429,0.3347 -0.7345,0.4989 -1.3079,0.8404 -0.8564,0.5074 -1.7516,0.9057 -2.5059,1.4613 0.2356,1.065 0.3408,0.2313 0.567,1.1803 -0.3368,0.1154 -0.5037,0.0961 -0.7764,0.2109 l -0.6276,0.3487 c -0.0326,0.0196 -0.0933,0.07 -0.144,0.104 -0.6616,-0.9924 -0.4683,-0.3812 -1.6436,-0.9062 -2.1376,-0.9564 -9.4118,-5.4505 -11.4868,-6.6869 l -9.8141,-5.7592 c -0.6143,-0.3407 -0.9564,-0.5921 -1.6274,-0.9717 -0.9938,-0.5624 -1.1046,-0.2903 -1.2532,-1.4445 l 1.0304,-0.2991 c 0.705,-0.1973 0.4113,0.0763 0.8683,-0.4895 1.8895,-2.3429 -0.7745,-2.1427 -1.6101,-2.4636 -0.4289,-0.1656 -1.2317,-0.7529 -1.6047,-0.9978 -0.949,-0.6217 -2.5075,-1.2719 -2.9438,-2.3584 0.5689,-0.8317 0.9791,-0.5656 1.7901,-1.1458 0,0 0.7775,-54.959 1.1237,-55.8201 v 0.735 h 61.4999 v 21.316 h 13.9181 v -21.316 h 62.799 c 0.2682,1.6333 -0.0873,3.3888 -0.1154,5.0063 -0.0394,2.2875 0.1021,4.71 -0.108,6.9675 l -0.8223,11.681 c 0.008,0.5644 0.1582,0.9893 0.1519,1.6489 -0.0306,3.1391 -0.4028,6.7247 -0.7302,9.7747 -0.1468,1.3695 0.1854,5.095 0.1134,6.5036 -0.0547,1.0856 -1.2359,4.7279 0.9717,5.0581 1.0347,0.1548 0.5182,-0.4669 1.6189,0.3954 0.4567,0.3575 0.8997,0.5956 0.538,0.5483 -0.0845,0.2267 -1.8346,-0.5942 -2.5449,-0.6095 -0.1962,2.3037 0.0893,2.4877 1.9607,3.6108 3.8069,2.2824 1.6407,0.9805 2.8514,3.0353 0.9944,-0.4481 0.2588,-1.6466 0.3047,-2.5523 0.0561,-1.1038 0.5842,-1.7728 1.6653,-1.756 0.3816,2.2923 0.2169,4.4719 1.0466,6.722 0.3353,0.9057 0.6749,1.1132 0.7642,1.8014 -1.4819,0.1174 -2.0608,-0.464 -2.5917,-1.6106 -0.0232,-0.0488 -0.0439,-0.1159 -0.07,-0.1661 l -1.2612,-1.5953 c -0.5215,-0.7816 -0.5737,-0.6721 -1.7461,-0.7722 -0.2789,0.811 -0.1134,1.1803 -1.0071,1.3419 l -0.5236,-2.2189 -1.3113,0.3259 c -0.4896,-0.35 -0.1653,-0.6695 -1.0123,-0.979 -0.1542,0.7758 -0.405,1.5341 -0.0861,2.315 0.2829,0.6922 0.2687,0.1647 0.485,0.7591 0.8042,2.2303 -4.6109,0.4967 -6.7771,1.7034 0.379,1.3813 0.3342,3.4021 0.8612,4.854 0.8676,2.4024 0.4461,1.9182 -6.3443,5.6276 -2.4216,1.3207 -4.5365,2.4211 -6.9497,3.9084 l -10.4397,5.8459 c -3.4775,1.9177 -3.2887,0.819 -7.4106,-1.4179 l -6.851,-4.0198 c -0.7022,-0.5621 -0.5749,-0.6434 -1.484,-1.131 l -5.2974,-2.9313 c -0.6658,-0.3648 -1.0771,-0.5831 -1.6608,-0.955 -1.0771,-0.6905 -0.8898,-0.5629 -1.1698,-1.7254 -0.4717,-1.9622 -0.8451,-0.7198 -1.1699,-4.2639 -0.1641,-1.7856 0.2336,-3.7236 -0.1346,-4.7716 -1.2453,0.3637 -1.342,1.2813 -1.4735,2.4931 -0.5374,4.9589 0.1749,3.7491 0.453,4.9042 0.2633,1.0984 0.0133,1.9582 -0.4609,2.7179 -0.6203,0.9884 -1.0024,2.5276 -1.6319,3.5583 -0.3135,0.5122 -1.1719,1.5707 -1.2399,2.0288 2.7544,0.6828 2.9738,-0.7864 5.3782,-0.6356 0.3687,1.446 0,3.1893 0.5921,4.5598 0.8972,2.0824 0.5797,4.8263 0.8144,7.2746 0.1882,1.9295 -1.2937,1.9962 1.3365,5.8317 0.984,-0.2166 0.7064,-0.3328 0.7886,-1.3425 0.0899,-1.1245 0.4442,-0.6616 -0.0969,-1.8255 -0.5882,-1.2685 -0.4867,-3.486 0.0153,-4.3877 0.2041,0.8144 0.0182,1.5159 0.3311,2.603 0.7347,2.5464 2.8185,5.9927 -0.0442,6.272 0.0986,1.074 -0.5749,1.5188 1.5621,1.3586 1.0338,-0.0765 1.6427,-0.7401 2.7358,-0.0714 0.036,1.0686 -2.4203,2.5279 -4.6293,0.6205 l -1.1353,-1.4346 c -0.881,0.0124 -0.7682,0.2131 -1.4252,0.172 -0.963,-0.0587 -0.1386,-0.1607 -1.0891,-0.3682 0.0286,0.8671 0.2375,0.4856 0.0167,1.4091 -2.4205,0.1828 -4.1785,-0.6735 -6.5282,-0.9496 -1.8722,-0.218 -4.8208,-0.9632 -6.2447,-0.9303 z m 517.0272,26.1252 c 0.341,-0.5862 13.9314,-7.4945 16.3964,-8.8265 3.6644,-1.9775 2.4404,-0.5275 4.9876,-0.9544 1.5766,-0.2668 0.9402,0.0788 1.7674,0.1286 0.8371,0.0522 0.3688,-0.4161 1.5559,-0.3954 2.2065,0.0428 5.0828,-0.2988 5.9474,-0.1414 0.8056,0.1459 0.8544,0.3101 1.6614,0.1981 3.9416,-0.5488 12.4347,-0.0434 17.2633,-0.5581 1.4887,-0.1582 2.9406,0.0853 4.2233,0.0972 1.2872,0.0113 2.4463,-0.2954 4.1077,-0.2735 l -25.1121,13.8194 c -2.4971,1.2731 -3.4524,1.7121 -7.3372,0.9003 -2.9605,-0.6188 -5.8434,-0.7982 -8.6086,-1.2691 -1.5766,-0.2687 -2.9151,-0.0935 -4.3923,-0.2415 l -8.5852,-1.3972 c -1.4253,-0.2554 -3.2593,-0.1049 -3.875,-1.0865 z m -43.6453,16.8412 c -0.1267,0.1913 -0.2637,0.3861 -0.4317,0.6809 l -0.3481,0.633 c -0.0273,0.0481 -0.0788,0.1267 -0.1015,0.1655 -0.0227,0.04 -0.0632,0.1168 -0.1041,0.1681 -0.2834,-0.4728 -0.204,-0.7492 -0.2806,-1.4953 l -1.2126,-0.3824 c 0.4821,-0.9924 4.1572,-2.7096 4.6666,-2.8516 l 6.393,0.6587 c 0.0411,0.007 0.1134,0.0114 0.1545,0.0182 l 1.618,0.216 c 1.2813,0.009 1.15,0.3569 2.1064,0.3974 0.8723,0.038 0.6449,-0.3093 1.8148,0.1001 1.2024,0.4203 2.2076,0.4028 3.6595,0.4575 1.9429,0.0742 0.5502,0.4481 1.7768,0.515 2.8853,0.1559 1.9321,0.2407 3.9778,0.5908 0.356,0.0629 2.7357,0.2035 3.6114,-0.005 l 0.5811,-0.1868 c -0.8859,-0.8759 -0.9406,-0.5925 -2.7593,-0.8351 -1.1579,-0.1542 -2.0435,-0.3614 -3.0172,-0.521 l -16.5965,-2.3009 c -0.4882,-0.1001 -1.0304,-0.2149 -1.3612,-0.591 0.7809,-1.0344 0.7228,-0.4255 3.3599,-0.2067 1.3028,0.11 2.2045,0.5083 3.5504,0.5837 l 14.697,1.9409 c 1.5792,0.2318 6.9049,0.6981 7.215,1.2804 0.1347,0.2953 -0.7251,0.6684 -1.3779,0.733 -0.9263,0.0927 -1.8929,-0.1616 -2.6144,-0.3061 -0.8932,1.5454 -0.5431,1.1245 -2.2991,1.9193 -5.0021,2.2671 -3.9785,1.6923 -10.9667,0.7163 -2.537,-0.354 -5.4678,-0.46 -8.1221,-0.9329 -2.2598,-0.4008 -5.1503,-0.9623 -7.5892,-1.1599 z m 23.0125,-31.3696 c -0.2174,-1.476 -0.4663,0.0856 -0.8065,-1.2838 1.1259,-0.881 0.5443,0.3047 1.1891,-0.2988 0.7892,-0.7404 -0.1298,-0.4989 -0.3614,-0.8416 l 0.2914,-1.1531 c 1.014,0.5448 0.345,0.3053 1.4454,0.4294 l 0.5916,0.1094 c -0.3288,-1.2747 0.2548,-0.9592 0.3209,-1.0573 0.0607,0.0422 0.1287,0.1888 0.1647,0.1449 0.3387,-0.4142 -0.1055,0.1573 1.0145,0.7775 -0.1307,-1.2438 0.2401,-2.0874 -1.154,-1.9794 -1.027,0.0799 -1.0083,0.5955 -1.2557,1.3892 -1.0471,-0.7662 -0.3668,0.3342 -0.6585,-1.2985 -1.4077,0.4654 -0.5454,0.032 -1.6413,-0.0448 -0.6803,-0.0473 -1.1072,0.0609 -1.8966,0.0448 v -0.2194 -0.8504 c 0.9377,0.0867 1.2055,-0.006 2.1075,-0.1755 l -0.6916,-0.6415 c 1.021,-1.4887 0.0833,-1.161 1.2305,-2.5404 0.256,-0.3101 0.066,-0.1553 0.3112,-0.3356 0.0255,-0.0187 0.0896,-0.0473 0.1163,-0.0632 0.026,-0.0153 0.096,-0.032 0.1213,-0.0473 0.6644,-0.3708 0.03,1.1216 0.5363,-0.4116 0.9751,-0.4729 0.0286,-0.1406 0.8716,-0.0593 l 0.3949,0.0681 c 1.9154,0.1987 2.5897,-0.6438 3.4861,-0.5018 l 2.3198,-0.2755 c 0.0193,-0.002 0.0814,0.007 0.1026,0.007 0.0261,0.002 0.0927,0.0207 0.118,0.0235 0.032,0.004 0.1048,0.0238 0.138,0.0292 l 0.9366,0.0286 c 0.1128,0.5463 -0.1026,0.8277 0.2387,1.3142 0.1955,-0.2322 8e-4,-0.3357 0.7044,-0.4771 1.5959,-0.3229 0.4836,-0.1386 0.9116,0.1729 -0.6976,0.7656 -0.4468,-0.0454 -2.6484,0.6335 -0.7818,0.2416 -0.631,-0.0666 -1.2186,-0.0532 -0.0519,5e-4 -0.1321,0.0153 -0.1786,0.0198 l -0.3617,0.108 c 0.4484,0.7571 -0.1332,0.1803 0.7877,0.4997 0.0709,0.0247 0.6242,0.1134 1.0012,0.2481 -0.4629,0.9218 -0.0346,-0.0193 -1.3858,0.7829 1.2625,0.1089 0.5641,0.3336 2.0233,0.2075 1.1954,-0.102 1.3448,0.2489 1.2181,1.4153 1.62,0.4862 0.3648,-1.7821 0.2599,-2.0222 -0.5729,0.0113 -1.3504,0.3515 -2.0996,-0.1874 0.3249,-0.4042 0.1142,-0.2874 0.6729,-0.4983 0.5177,-0.1947 1.2867,0.0975 2.1144,0.076 0.3013,-0.007 0.6576,0.1275 1.0624,-0.6863 0.0139,-0.0292 0.0306,-0.1012 0.0448,-0.1287 0.2367,-0.4615 0.1667,-0.4209 0.7761,-0.5763 l -0.642,1.2872 c 1.067,-0.1278 0.7997,-0.2854 1.6452,0.2895 l -0.8963,1.7495 c -0.104,0.1193 -0.2494,0.1854 0.2395,0.5443 1.0744,0.7883 0.3379,-0.5503 0.8742,0.6275 l -1.0984,0.044 c 0.1253,1.2226 0.0474,0.0536 -0.2194,0.5743 -0.6077,0.252 -0.1034,-0.0267 -0.4402,0.4189 l -1.1951,2.1195 c -0.5698,1.2611 -0.2815,1.5253 -0.7211,1.7595 -0.0167,0.007 -0.0848,0.0133 -0.1012,0.0167 -0.0133,0.002 -0.0808,-0.0167 -0.0941,-0.0187 -0.3629,-0.0388 -0.1948,-0.7158 -0.2356,-0.1562 -2.6189,0.0856 -1.8592,0.1267 -2.1614,-0.4728 -0.0743,0.8671 -0.4723,1.0593 -0.593,1.1953 -0.3436,-0.5215 -0.186,-0.5938 -0.2356,-0.9932 -0.7061,0.6463 -0.3673,0.354 -1.3419,0.2687 -0.6256,1.4902 0.4363,1.2294 -1.5446,1.0965 0.3515,-0.8589 0.6202,-0.3822 0.8657,-1.3105 -1.8615,0.1355 -0.813,0.005 -1.476,0.8991 -0.7756,1.0452 -0.3067,0.3634 -1.4598,0.6696 -0.0533,-0.0666 -0.7404,0.5936 -0.2342,-0.771 0.0227,-0.3881 0.01,-0.116 -1.1826,-0.5956 -0.5108,1.0131 0.3943,0.5335 -1.0176,0.9363 z m -0.6163,26.3287 c 0.6236,-0.8382 0.5369,-0.3707 1.7595,-0.5655 l 7.8746,-1.6361 c 1.8669,-0.286 4.2905,-0.5681 5.7932,-1.2331 1.6466,-0.7296 1.586,-0.0975 3.8137,-0.8938 1.3618,-0.4861 2.1821,-0.835 3.6655,-0.943 1.48,-0.1066 2.1918,-0.0582 3.8276,-0.5704 1.1872,-0.3733 2.6433,-0.7801 3.7296,-0.991 -0.3152,0.6149 0.0694,0.1574 -0.5636,0.6336 -2.1809,1.6356 -5.8838,2.5217 -7.7813,4.2519 -0.7824,0.7149 -0.8609,0.4709 -1.8647,0.7263 -0.9737,0.2489 -2.6597,1.2739 -3.7131,1.7447 -4.2077,1.8748 -4.0195,0.8819 -5.6503,0.8544 -2.1362,-0.036 -3.0761,-0.8524 -4.2579,-0.8544 -1.0536,-0.004 -0.7415,0.1188 -2.0982,-0.1653 -0.7676,-0.1601 -1.3986,-0.1975 -2.3457,-0.2562 -1.1432,-0.07 -1.6106,0.3101 -2.1889,-0.1021 z m 25.0674,-36.4062 c 0.3361,-1.4439 0.6531,-0.3401 1.11,-1.851 l 0.428,1.1733 c 0.3067,-0.8963 0.2997,-0.9632 0.9885,-1.4726 0.0419,0.0567 0.0799,0.2282 0.0901,0.1888 0.0105,-0.0369 0.0666,0.1445 0.0785,0.1848 0.0114,0.0351 0.0494,0.1287 0.0596,0.172 l 0.0414,0.6429 1.3603,-0.479 c -0.1485,-0.7328 0.7231,-1.8955 1.44,-2.2757 -0.003,-0.5207 0.0527,-0.0813 -0.1712,-0.0499 -0.2682,0.0366 0.4039,0.4082 -1.01,0.0494 0.343,-0.9445 -0.0113,-0.4397 0.4689,-0.9397 0.5235,-0.5457 0.6757,-0.343 2.6486,-0.3954 2.9339,-0.0808 1.6226,-0.2277 2.9138,0.6287 l -0.6049,0.7132 c -0.8303,10e-4 -1.0185,-0.1676 -2.0095,-0.1188 0.2715,0.9462 0.1774,0.5749 0.5423,1.1772 0.8444,1.3913 -0.0366,0.1165 0.2449,1.5599 0.0725,0.3736 0.6434,-0.2429 0.0431,0.9451 l -1.1212,-2.1917 c -0.0133,-0.0346 -0.032,-0.1106 -0.0586,-0.1613 -1.3938,0.2633 -0.4295,0.2406 -1.4046,1.612 -0.428,0.603 -0.0972,-0.3427 -0.4921,0.7124 0.104,0.0711 0.1466,0.1267 0.1619,0.1613 l 0.0521,-0.0488 c 0.0292,-0.034 0.074,-0.0774 0.142,-0.1307 1.7995,-0.8702 1.1744,1.1466 1.9764,1.9276 0.4461,0.4348 0.7035,0.1148 0.9141,0.6695 l 0.6704,-0.5969 c 0.0247,-0.0312 0.0641,-0.108 0.1041,-0.1565 0.064,0.0439 0.3568,0.2874 0.4022,0.3047 1.0704,0.4008 0.0119,-0.3475 1.2231,-0.0187 1.7816,0.4856 -0.0394,0.9198 1.7275,0.2775 -0.2781,-0.7024 -0.2642,-0.4989 -0.7203,-0.9726 0.557,-0.2692 0.563,-0.064 1.2804,-0.7642 l 1.751,-1.5395 c 0.3475,0.5392 0.4359,0.4485 0.1618,1.2073 -0.2319,0.419 -0.1193,0.3356 -0.4359,0.5896 1.584,0.248 0.8889,0.2653 1.1729,-0.9042 l 0.6271,-1.8057 c 0.0493,-0.0145 0.1292,0.0196 0.1468,-0.036 0.172,-0.5428 0.2327,-0.0632 0.2761,-0.0774 0.9008,-0.32 -0.7523,0.5658 0.3515,-0.1434 0.6789,-0.4349 0.2766,-0.074 0.352,-0.6375 0.0321,-0.2362 0.0281,-0.7878 -0.0266,-0.9978 -0.1307,-0.4768 0.0499,0.0453 -0.2035,-0.4369 l -0.4581,-0.7948 c 0.9938,-0.4017 0.5454,0.0366 1.2512,-0.269 -1.1004,-0.5448 -0.4303,0.337 -1.0451,-0.7075 l 0.3534,-1.0338 c 1.3459,0.4348 0.1021,-0.2594 0.7396,1.0185 1.5582,-0.3076 1.3266,0.0399 1.6914,0.4861 -0.9269,0.6197 0.491,0.2495 -0.9436,0.4728 l 0.9683,0.002 1.1792,-0.0159 c -0.1406,-0.3095 -0.5122,-1.5973 -0.2588,-2.0128 1.0925,0.458 0.1721,-0.009 0.5556,0.464 l 0.3881,0.6432 c 0.7585,-0.2444 0.5082,-0.2928 1.3861,0.2673 0.0499,0.032 0.1145,0.0774 0.1619,0.1074 l 0.3401,0.214 c 0.0468,-0.0606 0.0907,-0.0878 0.1075,-0.2061 l 0.7344,-1.4524 c 0.034,-0.036 0.0953,-0.0882 0.1279,-0.1208 l 0.2877,-0.2489 c -0.4638,-1.0278 0.2806,-0.9776 -0.8691,-1.2651 1.7668,-0.0379 -0.6458,0.4547 1.3019,0.3362 1.5007,-0.0927 0.366,0.1608 0.9057,-1.0318 l 1.652,1.4046 0.8445,-0.739 c 0.0198,-0.0221 0.0686,-0.0794 0.1006,-0.1193 0.8977,0.1666 1.9261,0.2948 2.1569,1.1777 l -1.4074,0.0508 -0.1179,1.9508 c 0.3154,-0.2001 0.6068,-0.307 0.911,-0.665 l 0.5808,-0.885 0.6925,0.7929 c 0.5902,-0.5882 -0.2568,-0.2299 0.6049,-0.6262 0.671,-0.3107 1.1291,0.0207 1.8468,-0.5482 1.0392,-0.8278 0.0559,-1.0718 1.8108,-0.8431 0.0272,0.0434 0.0272,0.1815 0.0312,0.15 l 0.1321,0.5757 c 0.3968,0.8016 1.3847,0.4782 2.4891,0.5315 1.2999,0.0621 1.0465,-0.2047 1.8348,-0.4482 0.3909,-0.1193 0.6316,-0.0912 1.3785,0.4369 -0.6602,0.5303 -0.5074,0.4983 -1.6274,0.4742 0.6084,0.5562 0.5916,-0.1573 0.2455,0.6704 -1.5106,0.5267 -0.286,-0.1375 -2.1234,-0.3756 l -0.2648,0.813 c -0.005,0.068 0.1007,0.5182 0.1061,0.6222 -0.5664,-0.1868 -0.6444,-0.034 -0.8845,-0.0814 0.4649,-0.595 0.3969,-0.3234 0.7643,-1.1792 l -0.8363,-0.2934 c -0.3875,-0.0533 -0.377,-0.206 -1.0397,0.2081 -0.0516,0.0334 -0.6078,0.6043 -0.6231,0.6236 -0.3835,0.4935 -0.1655,0.3223 -0.5261,0.8864 -1.7223,0.3821 -2.0591,-0.1267 -3.0682,1.1038 -0.182,-0.29 0.201,-0.2548 -0.2568,-0.6216 -1.2597,-1.0165 -2.3428,0.3189 -2.3556,0.3263 -0.455,0.3081 0.0369,0.0805 -1.0111,-0.1143 l -0.2948,1.0698 c -0.5029,-0.8047 0.1808,-0.1227 0.1448,-1.3017 -0.0147,-0.4297 -0.0513,-0.5984 -0.3155,-0.8518 -0.5802,-0.5516 -0.5694,-0.1074 -0.6069,-0.0921 0.6237,0.6823 0.2421,-0.1814 0.4023,1.1418 -1.9236,1.0225 -0.6744,-0.3767 -1.2853,1.5267 -0.0615,-0.028 -0.134,-0.0365 -0.1607,-0.1241 -0.0269,-0.0853 -0.1207,-0.0967 -0.1596,-0.1213 l -0.4487,-0.296 c -0.373,-0.1616 -0.5811,-0.0629 -0.8617,-0.002 1.7867,1.1058 -0.311,2.4344 -1.0511,1.6507 -0.2942,0.9402 -0.1315,0.8444 -0.9431,1.7186 -0.6043,-0.18 -0.6398,-0.3254 -0.9998,-0.3827 l -0.8804,0.0258 c -0.0261,-0.002 -0.0981,-0.0125 -0.1247,-0.0198 -0.4649,-0.0987 -0.5123,-0.0153 -0.7478,-0.5069 -0.007,-0.0153 -0.0544,-0.3435 -0.0933,-0.447 l -2.3457,0.0896 c -0.002,0.002 -0.0932,0.5167 -0.098,0.5261 -0.2889,0.7897 0.0881,0.2066 -0.4221,0.5981 l -1.1438,0.7413 0.4842,1.4184 c 0.6769,-0.1287 0.2381,0.1341 0.6009,-0.32 0.1426,-0.1769 0.2427,-0.6803 0.3047,-0.8977 1.3405,0.2987 1.0866,-0.0961 1.9508,0.6094 0.002,-0.0765 0.006,-0.6755 -0.009,-0.7617 -0.1347,-0.7755 -0.7943,-1.1497 -0.4881,-1.8326 1.1732,0.3113 0.7696,0.3547 0.6689,1.7581 2.0637,-0.2874 1.1931,-0.411 3.5314,-0.2855 -0.1814,0.5103 -0.2693,0.5009 -0.3515,0.6174 -0.5502,0.7886 -0.5227,0.3504 -0.7903,1.3261 -0.9997,-0.2741 -0.5295,-0.0547 -1.4059,-0.5922 -0.4301,1.0211 0.1907,0.3461 -0.7336,0.7849 -0.4695,-0.2627 0.007,0.0893 -0.3408,-0.278 l -0.4008,-0.4737 c 0.002,0.7651 0.0267,0.5116 -0.1774,1.0672 -0.2387,-0.1715 -1.5047,0.4048 -0.4729,-0.7064 -0.4935,1.5041 -0.2948,-0.2914 -0.9439,1.4001 1.1625,0.9697 0.877,1.1684 0.5737,1.7186 -2.7164,0.2248 -0.0799,-0.4822 -1.2798,-0.7583 l -0.3115,1.1438 c -0.8799,-0.4235 -0.7869,-0.5507 -0.9437,-1.1832 -0.5683,-2.283 0.5896,-1.4952 0.1987,-2.4862 -0.3923,-0.9913 -0.4969,-0.0329 -0.5077,-0.0255 -0.8555,0.5969 0.4763,0.8966 -1.7033,0.3943 l -0.256,0.4821 c 1.1931,0.6075 0.4513,-0.4235 1.0069,0.9383 0.1395,0.343 0.3555,1.3666 0.3569,1.4247 l -0.8317,0.3461 c -0.0527,0.0207 -0.1188,0.0408 -0.1707,0.0641 l -0.3208,0.1488 c -0.6631,0.3934 -0.7064,0.7682 -1.1852,1.3751 -0.5837,-0.2053 -0.8776,-0.4862 -1.2319,-0.7923 l -0.7084,0.9964 c 0.4456,0.0394 0.6571,0.0374 1.0579,0.1301 l 0.8804,0.3469 c -0.919,1.4573 0.2001,-0.4303 -1.7861,1.1818 l -0.1188,0.5675 c -1.2211,-0.2279 0.002,-0.3634 -1.4493,0.2648 -0.224,-0.5114 -0.0519,-0.9142 -0.921,-1.3278 -0.0632,-0.0315 -0.5675,-0.1522 -0.7129,-0.2041 -0.0873,1.368 0.0927,0.1293 0.2134,1.4341 l -3.4534,-0.0769 c -0.0448,-0.007 -0.1162,-0.0326 -0.1556,-0.036 -0.4743,-0.0473 -0.1072,-0.4107 -0.4403,0.2849 l -3.6946,-0.1961 -0.9746,0.1519 -0.5122,-1.311 c -0.7262,0.2032 -0.4175,0.3328 -1.0797,0.0833 l -0.2441,1.313 c -1.1999,-0.0927 -1.8408,0.1041 -2.4571,-0.7228 l 1.0151,0.1307 c -0.036,-0.0632 -0.0626,-0.0941 -0.0853,-0.2036 l -0.4076,-0.6247 c 0.4167,-1.4754 0.6457,-0.3181 0.2687,-1.5588 -0.7549,0.3022 -0.4527,0.1134 -0.7622,0.9097 -0.1936,0.4929 -0.1667,0.593 -0.4541,1.1593 l -1.6575,0.2189 c 0.1475,-0.6866 0.9516,-2.1858 1.5106,-2.4526 0.4054,-0.1922 0.595,0.3274 0.9063,-0.7517 0.1729,-0.5996 -0.1021,-0.2614 0.1083,-0.819 0.2432,-0.6429 -0.0709,-0.3288 0.538,-0.6783 0.3554,0.8598 -0.3195,1.0653 0.4722,1.5786 0.4377,-0.6449 0.2183,-0.4946 0.2376,-1.3819 1.722,0 1.9562,-0.8489 2.2583,0.072 l 2.0761,0.0434 -0.2579,-0.6843 c -0.0375,0.0448 0.3713,0.3322 -0.7512,0.2021 -0.8598,-0.1006 -0.3073,0.005 -0.9411,-0.3974 0.0708,-0.6355 0.2676,-0.6349 0.4909,-0.8963 l 0.2909,-0.2908 c -0.3549,-0.0547 -0.8799,-0.1055 -1.1526,-0.2569 l -0.2835,-0.2174 c -0.6015,-0.4422 0.2115,-0.21 -0.6837,-0.5269 l -0.4802,1.0318 c -0.0799,-0.845 -0.4719,-1.5347 0.0187,-2.0174 0.6724,-0.6597 0.0823,-0.3042 1.1206,0.7922 l 1.2092,-0.8331 c 0.4729,-0.4354 0.2954,-0.4807 0.929,-0.8022 z m -24.4511,10.0775 c -0.9057,0.2483 -0.9159,0.1616 -1.9043,0.203 -0.9017,0.0685 -0.6214,-0.0582 -1.3264,-0.0635 -0.5323,-0.004 -1.01,0.1522 -1.6509,0.2134 -0.4048,-0.7262 -0.0966,-1.192 -1.1812,-0.9652 -0.1987,0.2741 0.0695,0.3288 -0.2367,0.165 0.0355,0.0232 0.1061,0.074 0.1188,0.0411 0.003,-0.003 0.4694,0.0842 0.6817,0.7611 -2.1858,0.1774 -3.3122,0.0246 -4.9481,0.1159 l -0.1928,-0.7928 c -0.0127,-0.0306 -0.0433,-0.1021 -0.0547,-0.1267 l -0.1054,-0.146 c -0.5857,-0.5009 0.4535,0.1125 -0.5191,-0.1069 -0.0464,-0.0105 -0.1499,-0.0405 -0.1938,-0.0519 -0.0468,-0.0107 -0.1474,-0.0246 -0.2124,-0.0595 0.1188,-2.2515 0.1415,-0.9023 0.3022,-1.7407 -0.0187,0.0348 -0.1786,0.246 -0.2279,0.2622 l -0.7824,0.0612 c -0.0221,-0.0794 -0.0374,-0.1165 -0.0354,-0.2461 0.003,-0.1227 -0.0266,-0.1754 -0.0207,-0.2341 0.006,-0.0527 -0.004,-0.1514 0.007,-0.214 0.0105,-0.0587 0.0227,-0.1361 0.0386,-0.1962 l 0.6004,-0.8762 c 0.0238,-0.0246 0.0907,-0.5023 1.2211,-0.4203 -0.1681,-1.3451 0.0607,-1.4899 -0.2307,-2.5317 0.5442,-0.6182 0.4121,-0.2208 0.701,-0.6097 0.0332,-0.0465 0.0711,-0.1026 0.1006,-0.1539 l 0.6803,-2.3083 c 0.008,-0.0615 0.009,-0.1547 0.0253,-0.2301 0.064,-0.0153 0.1661,0.0739 0.1956,0.009 l 0.9683,-0.237 m 0.034,-0.009 0.4422,-0.1094 c 0.5995,-0.203 1.0324,-0.002 1.4065,0.5808 1.5815,0.1788 0.4417,0.098 0.8657,0.4714 -0.062,0.0527 -0.1715,0.1856 -0.2094,0.127 l -0.8825,0.5813 1.4735,0.0976 0.0839,1.267 c 0.9119,0.3416 0.3115,0.0434 0.6556,0.0616 0.0627,0.003 0.6364,0.0272 0.7164,0.0345 0.1255,0.0134 0.7458,0.1055 0.8365,0.1041 0.0725,0 0.136,-0.002 0.206,-0.008 l 0.5837,-0.1408 c -0.6256,-1.3712 0.2545,0.2735 -0.8907,-0.6529 l -0.36,-0.354 c -1.1911,1.3357 -2.0956,0.0278 -1.8127,-1.3 0.0473,-0.2234 0.2747,-0.4028 0.4127,-0.9331 0.8172,0.2593 0.1341,-0.186 0.3081,0.949 0.6109,-0.6083 0.4782,0.5131 0.2637,-1.0811 -0.0669,-0.4989 -0.5916,-0.0907 0.1125,-0.7444 l 0.413,0.8285 c 0.673,-0.1533 0.8249,-0.2395 1.4533,-0.2914 l 1.2005,-0.2834 c 1.2472,1.1457 -0.0814,0.4941 1.8448,0.9363 m 80.4214,-0.6891 0.9564,-0.8697 c -1.0411,-2.4423 -0.3288,-1.8941 1.2606,-3.1059 1.063,-0.811 0.9783,-0.4068 1.8947,-0.9204 l 1.6387,-1.2059 c 0.9258,-0.5221 0.4037,0.1361 2.677,-1.1398 l 1.6869,-0.8785 c 0.0474,-0.0246 0.108,-0.0547 0.1554,-0.0805 l 1.7334,-0.9277 c 0.0521,-0.0227 0.1173,-0.0434 0.1666,-0.0647 l 2.5079,-1.2398 c 0.3829,-0.2163 0.1621,-0.1208 0.5604,-0.3649 l 1.8365,-1.0386 c 0.0709,-0.0334 0.5984,-0.2347 0.7385,-0.2273 0.7996,0.0385 0.42,-0.0474 0.9263,0.3373 -0.5142,1.1092 -0.428,0.4708 -1.584,1.0993 -0.7489,0.4082 -0.5916,0.7302 -1.4312,1.1486 -0.6316,0.316 -1.1038,0.316 -1.7674,0.5975 -1.1299,0.4794 -1.4366,1.4905 -1.6067,1.2277 0,0 -1.3734,0.1021 -2.2592,0.9346 -0.5088,0.4793 0.007,0.1519 -0.5887,0.4615 -0.5843,0.3047 -0.2583,0.0873 -0.7345,0.2454 -0.3954,0.1307 -0.809,0.2554 -1.1004,0.6149 1.8034,0.4836 1.9468,-0.5516 2.467,0.3407 l 0.1102,0.5564 c 1.5206,-0.5584 0.2166,-1.6741 3.3154,-1.1939 l 1.0197,-0.0853 c -0.2067,-1.0659 -0.635,0.254 -1.1566,-0.9003 0.7206,-0.4411 3.6777,-0.5462 4.0292,-0.483 0.0626,0.991 0.216,0.5289 -0.7928,1.3379 -1.304,1.0466 -0.6064,0.9791 -2.638,1.0457 -0.559,0.8711 0.9978,0.2795 -0.7784,1.2646 -1.5134,0.8376 -0.2474,0.1315 -2.1441,0.2109 0.1114,0.536 0.1865,0.18 0.4246,1.0757 -1.3351,0.3881 -1.3311,0.705 -1.6579,0.8257 -1.1319,0.4142 -0.857,-0.3081 -1.3927,-0.4904 l -0.1879,1.0214 c 0.005,0.0371 0.0138,0.1219 0.005,0.1814 -0.2242,0.1499 -2.6591,1.5324 -2.9973,1.6753 -3.274,1.402 -10e-4,0.7069 -3.1986,1.6934 -0.4145,0.6208 -0.3697,0.4989 -1.4888,0.9904 l -1.4505,0.426 c -0.9099,0.2529 -0.305,0.1877 -1.182,0.5057 l -0.9037,-0.657 -0.7489,0.7271 -0.6917,-0.5769 c -0.2661,0.1953 -0.9144,0.7455 -1.1491,0.7416 -0.7617,-1.1384 0.9618,-2.5997 0.9643,-2.5997 0.6971,-0.8705 -0.0779,-0.705 0.8144,-1.0806 2.0035,-0.8455 1.5806,-0.4614 3.7417,-1.1559 z m -577.7909,-0.5607 c -1.4672,-0.003 -1.2039,-0.0876 -1.1384,1.3138 0.0425,0.8978 0.038,1.9109 0.0967,2.8653 0.1,1.6988 0.2795,3.3707 0.0952,5.2421 m -6.8856,-4.9487 -0.003,-0.0173 m -0.0408,-0.176 -0.002,-0.007 m 34.5297,-6.8905 c 2.3023,0.2135 4.2758,3.4875 6.1506,6.02 0.5669,0.7645 2.0149,2.7266 2.0095,3.5436 -2.0194,0.1567 -2.0815,-0.1869 -2.9305,-1.4599 -0.6522,-0.9765 -1.1486,-1.4493 -1.8235,-2.6665 -0.9538,-1.7201 -3.1221,-3.4161 -3.4061,-5.4372 z m 88.0506,3.8217 c -0.1686,0.1882 -2.3284,1.116 -3.6161,-0.5567 -0.595,-0.7725 -2.7499,-4.4808 1.4207,-4.2333 1.7019,0.1006 1.5831,1.059 2.2229,2.948 0.2821,0.8343 0.6843,1.3105 -0.0275,1.842 z m 397.317,-10.4658 c -0.557,-1.0392 -0.7725,-0.144 -1.0999,-1.4298 1.1265,-1.1693 2.1564,-1.11 3.5408,-0.3124 0.9471,0.5482 2.7332,1.156 3.401,1.9644 -0.453,1.9421 -1.5041,1.1832 -2.9752,1.1038 -1.6215,-0.0867 -2.774,0.47 -4.356,0.1574 -0.1095,-1.0046 0.7676,-1.1191 1.4893,-1.4834 z m -389.3596,5.6384 c 0.6537,-0.4629 2.1351,-0.3481 3.1028,-0.2401 0.6183,0.9017 0.8697,1.9142 1.1064,2.8794 0.4564,1.8562 0.7163,2.1254 -1.3819,2.1807 -1.9874,0.0516 -1.794,-0.2452 -2.3896,-1.72 -0.3841,-0.9525 -1.2866,-1.8941 -0.4377,-3.1 z m -19.9091,0.11 c 0.432,0.7843 1.5579,3.5402 1.4618,4.5759 -3.9577,1.9242 -4.1371,-1.3217 -4.297,-1.754 -1.1999,-3.2548 -0.3583,-3.068 2.8352,-2.8219 z m 425.5157,-16.1476 -1.4473,-1.0845 c 0.1593,-0.5967 0.3835,-0.9182 0.9405,-1.1764 0.2101,-0.0975 10.6733,3.1314 2.7397,3.7216 -1.3385,0.0981 -2.886,0.3782 -4.3985,0.0848 0.0201,-1.2892 1.4099,-1.1747 2.1656,-1.5455 z m -21.5461,40.1233 c 0.0635,-0.0454 0.167,-0.008 0.2075,-0.1001 0.0408,-0.0918 0.1528,-0.072 0.2075,-0.0927 l 0.4136,-0.1352 c 0.5,-0.1562 0.2165,0.0598 0.7049,-0.2089 0.7348,-0.4068 0.0859,-0.4289 0.9576,-0.9737 0.4609,0.773 -0.2106,0.3682 0.4731,1.3 3.0824,-0.0576 2.5736,0.0178 4.2477,-0.7736 1.0383,0.9295 2.2482,0.8255 2.2575,1.8839 0.0102,1.2614 -1.7813,1.15 -2.9673,1.1733 -1.5352,0.0295 -4.053,-0.3623 -5.072,-1.2558 l -1.2266,-0.737 c -0.0513,-0.0215 -0.1386,-0.0448 -0.2035,-0.0802 z m -350.3806,-24.5659 3.2836,-0.2534 c 0.6262,1.0723 1.2084,3.1521 1.2065,4.7075 -4.1925,2.0642 -4.7294,-2.5132 -4.4901,-4.4541 z m 22.9966,-0.6877 3.0175,-0.1933 c 0.8382,1.0077 0.7188,1.654 0.9309,3.0019 0.2616,1.6427 0.7696,2.0837 -1.3879,2.1563 -2.0948,0.0694 -2.0627,0.0848 -2.3564,-1.5919 -0.184,-1.052 -0.6321,-2.3857 -0.2041,-3.373 z m 256.9737,-1.3884 c 3.8724,-0.4836 4.5334,0.1174 1.8907,4.9093 -4.0924,0.3544 -3.7301,0.1335 -1.8907,-4.9093 z m -345.7401,2.8097 c 0.5052,1.0018 0.9766,2.3332 1.4987,3.469 0.9913,2.1549 -2.5188,1.6186 -2.5838,1.5985 -1.1369,-0.3472 -1.5332,-2.122 -1.8181,-3.2165 -0.6429,-2.4658 0.3135,-1.8983 2.9032,-1.851 z m 322.8276,-2.8358 3.2894,-0.0714 c 0.1252,1.2044 -0.527,3.7244 -1.0925,4.8387 l -3.4121,0.2835 c -0.106,-1.2552 0.6749,-4.2684 1.2152,-5.0508 z m 11.6643,0.3076 c 1.4074,-0.5176 2.6011,-0.0882 2.6765,-0.0655 0.0646,0.0201 0.1434,0.0621 0.1947,0.0788 0.8737,0.3067 -0.6335,3.7502 -1.0032,4.4793 -3.0571,0.7954 -4.5544,0.7161 -2.4729,-3.6244 0.3954,-0.8263 0.0266,-0.3943 0.6049,-0.8682 z m -291.6113,2.0214 3.2502,-0.0834 c 0.5275,1.3094 1.0097,2.9792 1.2705,4.5652 -0.9156,0.4731 -3.1533,1.0678 -3.7596,-0.2021 -0.3955,-0.8274 -0.891,-3.2247 -0.7611,-4.2797 z m 314.1544,-2.1362 c 0.8456,-0.1361 2.808,-0.3141 3.45,-0.0587 0.1795,1.512 -0.7401,3.659 -1.3405,4.5618 -5.1635,0.8518 -3.1507,-0.2979 -2.1095,-4.5031 z m -46.8703,4.6667 c 0.1174,-1.6827 0.5817,-3.5496 1.2152,-4.684 1.764,-0.1321 2.6691,0.0439 2.6884,0.0499 1.2007,0.2795 0.1054,3.1802 -0.2427,3.977 -0.5456,1.254 -3.3675,0.8164 -3.6609,0.6571 z m -321.6076,-1.6915 c 0.7203,-0.2233 2.1249,-0.2094 3.0535,-0.0147 0.33,0.6276 0.599,1.7654 0.9584,2.3958 0.7977,1.3978 1.137,1.9049 -0.2854,2.2802 -2.4891,0.6537 -2.7306,-0.4867 -3.5643,-2.4828 -0.106,-0.2557 -0.2602,-0.603 -0.3076,-0.906 -0.0473,-0.2934 -0.0567,-0.3475 -0.0272,-0.6429 0.0519,-0.5162 0.0346,-0.3648 0.1726,-0.6296 z m 310.3107,1.6033 c -0.2934,-1.5205 0.3696,-3.6723 0.7911,-4.7733 l 3.3767,-0.0754 c 0.005,1.8448 -0.5468,3.8277 -1.1452,4.8683 z m -197.7707,-3.0285 c 0.8331,-0.5842 2.2578,-0.2469 3.2513,-0.1474 0.2195,0.7435 0.4403,2.0568 0.5837,2.7312 0.417,1.9448 0.2214,1.8861 -1.5772,1.8462 -1.5908,-0.0349 -1.9817,0.3554 -2.3618,-2.6652 -0.0227,-0.1842 -0.0587,-0.7398 -0.0488,-0.909 z m 301.8745,-1.5826 3.2493,-0.0496 c -0.2248,1.1585 -0.6162,1.9497 -1.0264,2.9622 -0.5369,1.3283 -0.6616,1.6994 -2.3712,1.7546 -2.2263,0.0715 -1.9613,-0.3294 -1.2163,-2.0548 0.3688,-0.8518 0.8762,-1.9517 1.3646,-2.6124 z m -22.7974,-0.1021 2.9721,0.0312 c 0.2308,1.4528 -1.0771,3.2173 -1.4655,4.4912 l -3.1745,0.167 c -0.2095,-1.4927 0.9456,-3.8792 1.6679,-4.6894 z m -439.4656,6.2581 c 0.7977,0.0887 1.3878,0.4926 2.039,0.8563 2.5375,1.412 1.9233,2.1728 3.3066,3.8237 1.4159,1.69 1.6333,3.0685 -0.3209,2.2802 -1.1551,-0.4669 -1.696,-1.518 -2.4449,-2.607 -0.589,-0.8553 -2.2771,-3.1887 -2.5798,-4.3532 z m 450.8532,-6.2368 2.7701,0.009 c 0.0938,0.17 0.3293,0.2573 0.1085,1.1364 l -1.4672,3.2986 -3.0827,0.002 c -0.1139,-1.3967 1.0919,-3.7231 1.6713,-4.4459 z m 89.3634,-8.7905 c 0.0552,1.0171 -0.1948,0.9076 -0.7696,1.5474 -1.23,1.372 -1.7717,3.0053 -5.3983,2.0282 0.3807,-1.0312 1.3169,-1.6988 2.0333,-2.5585 1.11,-1.3318 1.889,-1.0832 4.1346,-1.0171 z m -425.954,10.9976 c 1.2158,0.4541 0.4368,0.4473 0.9938,1.1863 0.7603,1.0057 3.3021,-0.0332 3.4234,3.7071 -1.3799,0.0153 -2.0741,0.2061 -3.4741,-0.1156 -1.1013,-2.2868 -0.9664,-1.4145 -1.2527,-2.0382 -0.1938,-0.4249 -0.1485,-2.0315 0.3096,-2.7396 z m 410.398,1.5684 c 1.0964,-0.0834 2.4798,-0.1792 3.2519,0.2134 -0.0779,0.7226 -1.8961,3.3497 -4.1964,3.5011 -3.6901,0.2412 -0.5896,-1.9157 0.9445,-3.7145 z m -34.9152,-14.713 c 0.5043,-2.0262 2.2876,-0.8943 3.4569,-0.1667 1.3133,0.8159 2.6291,0.9584 3.6096,2.0529 -1.3439,1.5593 -1.6047,1.2152 -3.5711,0.2582 -0.875,-0.4249 -2.9477,-1.5607 -3.4954,-2.1444 z m -63.2593,15.3386 c 0.1428,-1.3045 1.8467,-3.7562 1.7294,-4.3878 l 2.9834,0.108 c 0.0318,0.9525 -0.7251,3.0354 -1.0706,3.6851 -0.599,1.1296 -1.3799,0.8288 -3.6422,0.5947 z m 58.7321,-12.5065 c 1.2212,-1.6282 1.8686,-0.8612 3.5921,-0.0255 l 2.6453,1.3592 c 0.8495,0.5176 0.4141,0.0981 0.7217,0.7892 -1.26,1.8646 -3.0561,0.3846 -5.3144,-0.8873 -1.3561,-0.7642 -1.2118,-0.4507 -1.6447,-1.2356 z m 20.2093,11.935 c 0.1809,1.0945 -1.9122,3.5396 -3.1813,3.6462 -0.6009,0.0493 -1.7855,0.108 -2.1424,-0.2426 -0.5808,-0.5729 1.3266,-2.1691 1.6954,-2.5739 0.8657,-0.949 1.6027,-1.2966 3.6283,-0.8297 z M 194.4887,331.1796 c -0.4688,0.5975 -2.4358,1.6909 -3.2615,2.2618 -2.3117,1.6007 -3.7636,0.8523 -3.2667,-0.1608 0.2821,-0.5777 2.6224,-1.7521 3.3327,-2.1291 1.1438,-0.6063 2.4143,-1.792 3.1955,0.0281 z m 320.2796,7.8675 c 0.3948,0.0706 3.2133,0.084 3.2133,0.084 0,0 -0.8756,4.2891 -0.9436,4.4098 l -3.3435,0.0474 c 0.2095,-1.3099 0.9383,-4.5273 1.0738,-4.5412 z m 142.9789,2.1788 c -0.218,1.9936 -0.8756,1.2458 -1.8966,2.0829 -0.3728,0.3061 -0.3544,0.5048 -0.9692,0.9544 -1.8581,1.3572 -0.5301,0.1 -2.7924,1.9117 l -2.0305,1.7472 c -0.4561,0.453 0.0556,0.2376 -0.6775,0.4363 -0.9725,-1.2773 -0.0833,-1.6353 -0.0819,-1.6373 0.0533,-0.0774 0.8289,-0.7566 1.0605,-0.9099 l 6.5199,-4.0383 c 0.6483,-0.4923 -0.032,-0.1822 0.8677,-0.547 z m -464.8147,-3.9096 c 0.413,-1.0831 1.9256,-1.6342 2.8454,-2.1489 1.2685,-0.7129 2.3743,-1.7448 3.6408,-0.6829 -0.178,0.8615 -0.4929,0.8544 -1.3158,1.3799 -2.9401,1.8734 -3.767,2.8392 -5.1704,1.4519 z m 4.8909,3.3041 c 0.2282,-1.0758 0.8425,-1.0724 2.8219,-2.2317 1.0298,-0.603 2.4077,-1.6833 3.4367,-0.3649 -0.3081,0.8893 -1.9389,1.6096 -2.8352,2.1518 -0.8563,0.5193 -2.4976,1.8567 -3.4234,0.4448 z m -43.2133,11.6583 c 0.4649,-0.6188 1.9669,-1.3039 2.8239,-1.6614 1.4587,-0.6089 2.247,-1.2251 3.5214,-0.4189 -0.4447,1.0766 -1.239,0.9552 -3.06,1.8697 -1.3425,0.6735 -1.7285,1.1049 -3.2853,0.2106 z m 3.2853,-3.6334 c -0.3367,0.5768 -4.6805,3.1345 -5.002,1.6052 -0.1908,-0.9051 3.4761,-2.0897 3.5181,-2.0968 1.0057,-0.1794 0.9825,-0.0221 1.4839,0.4916" class="colora2d0ef svgShape"></path><path fill="#156ba5" fill-rule="evenodd" d="M551.6694 294.7575v0c4.8424 0 8.8038-3.9838 8.8038-8.8517v-11.213h-17.6077v11.213c0 4.8679 3.962 8.8517 8.8039 8.8517M575.8228 294.7575v0c4.8425 0 8.8039-3.9838 8.8039-8.8517v-11.213H567.019v11.213c0 4.8679 3.9623 8.8517 8.8038 8.8517M600.4641 294.7575v0c4.8425 0 8.8039-3.9838 8.8039-8.8517v-11.213h-17.6077v11.213c0 4.8679 3.962 8.8517 8.8038 8.8517M247.5204 294.7575v0c4.8424 0 8.8039-3.9838 8.8039-8.8517v-11.213h-17.6077v11.213c0 4.8679 3.9622 8.8517 8.8038 8.8517M271.6741 294.7575v0c4.8425 0 8.8036-3.9838 8.8036-8.8517v-11.213h-17.6074v11.213c0 4.8679 3.962 8.8517 8.8038 8.8517M296.3151 294.7575v0c4.8425 0 8.8039-3.9838 8.8039-8.8517v-11.213h-17.6077v11.213c0 4.8679 3.9623 8.8517 8.8038 8.8517" class="colorfff svgShape"></path></g></svg></g></svg>