<?xml version="1.0" standalone="no"?>
<!DOCTYPE svg PUBLIC "-//W3C//DTD SVG 20010904//EN"
 "http://www.w3.org/TR/2001/REC-SVG-20010904/DTD/svg10.dtd">
<svg version="1.0" xmlns="http://www.w3.org/2000/svg"
 width="12192.000000pt" height="3326.000000pt" viewBox="0 0 12192.000000 3326.000000"
 preserveAspectRatio="xMidYMid meet">

<g transform="translate(0.000000,3326.000000) scale(0.100000,-0.100000)"
fill="#000000" stroke="none">
<path d="M16080 33240 c-732 -26 -1461 -97 -2160 -211 -3030 -495 -5869 -1831
-8205 -3864 -411 -357 -1011 -942 -1354 -1320 -1366 -1503 -2420 -3180 -3163
-5030 -786 -1959 -1188 -4048 -1188 -6185 0 -3199 896 -6264 2618 -8960 495
-775 1081 -1538 1733 -2255 343 -378 943 -963 1354 -1320 2336 -2033 5175
-3369 8205 -3864 2486 -405 5046 -246 7443 465 3277 971 6214 2967 8330 5661
1779 2266 2939 4940 3361 7745 192 1271 239 2570 140 3838 -220 2832 -1160
5547 -2737 7910 -1400 2096 -3270 3859 -5445 5132 -2192 1283 -4652 2045
-7177 2222 -527 38 -1281 53 -1755 36z m1160 -690 c2539 -105 4935 -777 7125
-1998 2627 -1464 4814 -3672 6257 -6317 1568 -2874 2206 -6158 1832 -9430
-475 -4154 -2582 -7959 -5874 -10604 -3111 -2500 -7039 -3735 -11025 -3466
-2796 189 -5469 1103 -7790 2664 -2000 1344 -3686 3138 -4897 5209 -542 928
-994 1918 -1334 2927 -488 1443 -754 2871 -824 4420 -13 283 -13 1066 0 1350
117 2591 824 5029 2107 7259 1544 2684 3885 4900 6653 6295 2038 1028 4215
1592 6515 1690 273 12 979 12 1255 1z"/>
<path d="M16050 32034 c-385 -20 -508 -28 -710 -44 -2117 -177 -4145 -780
-6008 -1785 -2383 -1286 -4386 -3173 -5817 -5480 -611 -985 -1117 -2056 -1490
-3155 -1081 -3187 -1081 -6693 0 -9880 1139 -3355 3418 -6234 6435 -8127 2134
-1339 4556 -2129 7075 -2307 424 -31 742 -39 1270 -33 531 6 675 12 1105 48
4068 336 7827 2276 10483 5413 1921 2267 3149 5045 3521 7966 91 708 120 1200
120 1980 0 673 -15 1000 -75 1585 -415 4091 -2477 7860 -5719 10456 -1632
1306 -3524 2273 -5527 2824 -1019 279 -2021 446 -3143 521 -217 15 -1331 28
-1520 18z m2055 -1729 c76 -21 134 -54 174 -100 29 -33 31 -41 31 -109 0 -79
-19 -154 -56 -228 l-24 -48 22 0 c68 -1 213 -22 271 -40 84 -26 142 -77 153
-134 13 -72 -17 -110 -230 -284 -502 -411 -688 -584 -943 -882 -204 -239 -330
-358 -428 -406 -69 -34 -87 -39 -172 -42 -116 -5 -164 10 -231 76 -112 111
-158 286 -117 447 19 72 81 205 132 283 56 85 241 271 380 383 148 119 355
257 563 375 85 48 180 102 210 119 81 46 166 185 177 289 5 49 3 55 -28 91
-48 54 -81 65 -201 65 -469 0 -1349 -381 -1863 -805 -114 -95 -305 -287 -387
-390 -217 -273 -318 -557 -306 -859 12 -272 105 -476 312 -682 289 -285 674
-433 1265 -485 182 -16 863 -6 1071 15 602 62 1022 203 1248 420 171 162 239
356 208 598 -11 85 5 118 59 118 77 0 100 -76 92 -305 -7 -213 -49 -359 -159
-552 -174 -304 -431 -531 -813 -718 -344 -169 -650 -254 -1125 -312 -212 -26
-923 -26 -1125 0 -415 54 -696 142 -971 304 -226 134 -420 309 -519 468 -106
169 -191 404 -221 608 -21 145 -14 379 15 519 83 387 321 776 695 1136 570
547 1450 975 2216 1077 150 20 542 14 625 -10z m2276 -4522 c11 -13 14 -76 14
-310 0 -280 -1 -295 -19 -309 -17 -12 -510 -14 -3502 -14 l-3483 0 -15 22
c-14 19 -16 65 -16 303 0 238 2 284 16 303 l15 22 3488 0 c3233 0 3490 -1
3502 -17z m2053 -1125 c14 -19 16 -65 16 -303 0 -238 -2 -284 -16 -303 l-15
-22 -5536 0 c-5138 0 -5538 1 -5555 17 -17 15 -18 38 -18 306 0 256 2 293 17
309 16 17 202 18 5554 18 l5538 0 15 -22z m1977 -1170 c93 -46 168 -122 212
-215 30 -64 32 -75 32 -178 0 -106 -1 -113 -37 -188 -61 -127 -162 -209 -299
-242 -47 -11 -123 -15 -288 -15 -174 0 -222 -3 -218 -12 2 -7 350 -1454 773
-3215 l768 -3203 243 0 243 0 0 -42 c0 -93 -22 -290 -46 -413 -52 -267 -178
-579 -325 -805 -363 -561 -951 -932 -1609 -1015 -162 -21 -479 -16 -630 9
-891 151 -1603 811 -1826 1692 -39 157 -63 320 -66 464 l-3 105 181 3 180 2
771 3213 c424 1766 770 3213 768 3215 -1 1 -475 -74 -1053 -168 l-1051 -170
-301 0 -300 0 0 -6550 0 -6550 898 -2 897 -3 52 -27 c70 -37 120 -89 152 -157
l26 -56 0 -495 0 -495 -28 -57 c-33 -67 -90 -121 -166 -157 l-56 -26 -5400 -3
c-5882 -2 -5461 -6 -5553 52 -56 35 -109 101 -132 164 -20 53 -21 72 -18 541
l3 486 25 50 c31 64 91 124 155 155 l50 25 898 3 897 2 0 6550 0 6550 -304 0
-304 0 -1048 170 c-576 93 -1049 168 -1051 167 -1 -2 344 -1447 767 -3212 424
-1764 770 -3210 770 -3211 0 -2 82 -5 183 -6 l182 -3 -3 -95 c-15 -484 -215
-1008 -527 -1379 -76 -91 -235 -247 -325 -321 -102 -84 -264 -186 -400 -255
-324 -162 -636 -235 -1003 -235 -303 1 -549 47 -822 157 -819 328 -1376 1114
-1422 2005 l-6 128 244 2 244 3 770 3210 771 3210 -251 6 c-227 5 -255 7 -306
27 -120 48 -196 117 -252 232 -30 61 -32 70 -32 180 0 112 1 117 36 190 55
114 142 190 264 232 47 16 452 17 7491 15 l7440 -2 75 -37z m164 -16331 c78
-36 130 -88 166 -162 l29 -60 0 -755 0 -755 -28 -60 c-34 -71 -92 -127 -171
-164 l-56 -26 -7630 0 c-7247 0 -7633 1 -7680 18 -78 27 -143 83 -184 157
l-36 65 0 765 0 765 23 46 c49 98 137 169 234 188 24 5 3470 8 7658 7 l7615
-1 60 -28z"/>
<path d="M14470 15760 l0 -6550 900 0 900 0 0 6550 0 6550 -900 0 -900 0 0
-6550z"/>
<path d="M17490 15760 l0 -6550 900 0 900 0 0 6550 0 6550 -900 0 -900 0 0
-6550z"/>
<path d="M10215 21898 c-2 -7 -276 -1280 -610 -2828 -333 -1548 -608 -2823
-611 -2832 -5 -17 58 -18 1237 -18 l1242 0 -7 33 c-38 193 -1209 5618 -1216
5635 -10 24 -28 29 -35 10z"/>
<path d="M23508 21898 c-14 -38 -1221 -5668 -1216 -5673 2 -3 560 -4 1239 -3
l1234 3 -612 2840 c-337 1562 -613 2841 -613 2843 -1 8 -29 0 -32 -10z"/>
<path d="M65100 26349 c-796 -91 -1400 -604 -1666 -1414 -112 -341 -154 -660
-154 -1175 0 -419 29 -702 100 -985 47 -188 93 -312 180 -490 211 -434 513
-740 921 -935 469 -223 1118 -249 1616 -64 235 87 444 219 626 394 187 179
297 331 421 581 158 317 244 655 276 1084 13 180 13 650 0 830 -37 498 -158
908 -370 1260 -313 519 -813 840 -1415 910 -139 16 -411 18 -535 4z m461 -745
c476 -82 797 -444 923 -1042 51 -240 61 -373 60 -807 0 -431 -9 -543 -59 -791
-144 -712 -563 -1088 -1179 -1061 -633 28 -1032 512 -1121 1359 -10 103 -15
254 -15 503 0 502 28 740 121 1018 75 225 167 385 303 526 126 129 239 202
400 256 163 55 385 70 567 39z"/>
<path d="M115550 26349 c-638 -70 -1141 -371 -1360 -814 -98 -200 -125 -321
-125 -570 0 -136 5 -201 18 -265 52 -242 155 -428 342 -616 268 -269 605 -446
1265 -664 529 -175 741 -274 891 -417 122 -116 168 -229 176 -423 4 -96 2
-140 -11 -190 -50 -199 -189 -353 -396 -436 -309 -125 -820 -105 -1118 45
-249 125 -412 358 -437 624 -3 34 -8 81 -11 105 l-5 42 -435 0 -434 0 0 -84
c0 -46 9 -137 20 -201 50 -295 175 -530 400 -756 292 -293 722 -485 1235 -550
144 -18 510 -16 670 5 785 101 1292 510 1389 1122 20 127 21 357 1 484 -96
636 -574 1041 -1595 1355 -245 75 -426 143 -587 220 -163 78 -262 145 -351
240 -105 110 -152 222 -152 365 1 337 227 579 616 657 134 27 436 24 560 -4
195 -46 334 -121 444 -241 107 -116 183 -303 197 -484 l6 -78 440 0 440 0 -7
103 c-40 599 -412 1080 -1012 1311 -104 40 -259 79 -399 102 -119 19 -547 27
-675 13z"/>
<path d="M38310 23760 l0 -2530 1635 0 1635 0 0 360 0 360 -1195 0 -1195 0 2
768 3 767 1018 3 1017 2 0 350 0 350 -1020 0 -1020 0 0 690 0 690 1185 0 1185
0 0 360 0 360 -1625 0 -1625 0 0 -2530z"/>
<path d="M46003 24493 c4 -1971 0 -1860 63 -2113 163 -656 689 -1087 1459
-1196 145 -21 494 -24 635 -6 479 62 875 245 1139 528 192 204 329 466 386
734 45 210 45 189 45 2068 l0 1782 -435 0 -435 0 0 -1687 c0 -964 -5 -1740
-10 -1809 -28 -357 -149 -602 -375 -752 -150 -101 -314 -149 -541 -159 -564
-24 -912 219 -1026 715 l-22 97 -3 1798 -3 1797 -441 0 -440 0 4 -1797z"/>
<path d="M54750 23760 l0 -2530 440 0 440 0 0 934 0 934 658 5 c683 4 707 6
940 52 581 117 996 459 1163 957 90 267 108 635 48 933 -64 318 -235 618 -462
814 -202 175 -464 307 -737 370 -237 56 -199 54 -1387 58 l-1103 4 0 -2531z
m2131 1794 c116 -20 245 -67 324 -119 81 -53 204 -178 247 -251 43 -74 82
-171 110 -272 31 -112 31 -382 0 -494 -52 -189 -133 -320 -257 -415 -85 -65
-163 -104 -275 -136 -145 -42 -230 -47 -832 -47 l-568 0 0 875 0 875 578 0
c484 0 594 -3 673 -16z"/>
<path d="M72120 23760 l0 -2530 1565 0 1565 0 0 360 0 360 -1125 0 -1125 0 0
2170 0 2170 -440 0 -440 0 0 -2530z"/>
<path d="M79530 25930 l0 -360 770 0 770 0 0 -2170 0 -2170 435 0 435 0 0
2170 0 2170 775 0 775 0 0 360 0 360 -1980 0 -1980 0 0 -360z"/>
<path d="M88100 23760 l0 -2530 440 0 440 0 0 970 0 970 480 -2 481 -3 494
-965 494 -965 471 -3 470 -2 0 27 c0 21 -792 1535 -1072 2050 l-39 72 83 42
c446 222 699 535 801 987 19 86 21 127 22 357 0 232 -2 272 -23 373 -118 583
-519 959 -1169 1096 -250 53 -329 56 -1393 56 l-980 0 0 -2530z m2006 1795
c197 -32 328 -91 442 -199 172 -163 250 -381 239 -671 -5 -139 -16 -197 -56
-306 -72 -191 -242 -353 -450 -429 -161 -59 -213 -63 -781 -64 l-515 -1 -3
843 -2 842 517 0 c408 0 537 -3 609 -15z"/>
<path d="M97745 26278 c-3 -7 -420 -1136 -928 -2508 -509 -1372 -927 -2505
-931 -2518 l-7 -22 462 2 462 3 196 577 196 578 959 -3 960 -2 196 -575 197
-575 461 -3 c254 -1 462 1 462 5 -1 5 -423 1142 -938 2528 l-937 2520 -403 3
c-317 2 -404 0 -407 -10z m770 -2136 c191 -562 346 -1025 343 -1027 -3 -3
-322 -4 -710 -3 l-705 3 353 1035 c194 569 353 1037 354 1040 2 15 46 -110
365 -1048z"/>
<path d="M105000 23760 l0 -2530 440 0 440 0 0 1783 c1 1596 2 1780 16 1762 8
-11 503 -813 1100 -1782 l1086 -1763 444 0 444 0 0 2530 0 2530 -440 0 -440 0
0 -1781 c0 -979 -3 -1778 -8 -1775 -4 2 -500 803 -1102 1780 l-1095 1776 -442
0 -443 0 0 -2530z"/>
<path d="M91481 19669 c-401 -45 -643 -254 -741 -640 -40 -157 -52 -267 -58
-569 l-7 -295 -235 -5 c-129 -3 -236 -7 -238 -8 -16 -11 -43 -104 -48 -168 -9
-114 10 -219 46 -256 l28 -28 226 0 226 0 0 -1341 c0 -864 4 -1347 10 -1359
21 -40 94 -55 265 -55 171 0 244 15 265 55 6 12 10 495 10 1359 l0 1341 344 0
344 0 31 26 c40 33 54 86 54 204 0 105 -13 164 -44 204 l-20 26 -352 2 -352 3
1 290 c1 253 3 302 22 387 57 268 175 369 428 369 112 0 186 -15 306 -62 147
-57 169 -37 176 157 5 141 -11 214 -55 256 -84 80 -398 134 -632 107z"/>
<path d="M104321 19640 c-18 -4 -45 -17 -60 -28 l-26 -19 -3 -2295 c-2 -2292
-2 -2295 18 -2313 65 -59 435 -59 500 0 20 18 20 23 20 2310 0 2170 -1 2293
-17 2307 -44 38 -67 43 -233 45 -91 1 -180 -2 -199 -7z"/>
<path d="M105471 19640 c-18 -4 -45 -17 -60 -28 l-26 -19 -3 -2295 c-2 -2292
-2 -2295 18 -2313 65 -59 435 -59 500 0 20 18 20 23 20 2310 0 2170 -1 2293
-17 2307 -44 38 -67 43 -233 45 -91 1 -180 -2 -199 -7z"/>
<path d="M72000 19364 c-14 -2 -59 -9 -100 -15 -764 -110 -1323 -697 -1504
-1581 -46 -223 -60 -388 -60 -688 0 -404 39 -678 139 -979 100 -299 234 -522
434 -721 185 -185 360 -293 604 -375 227 -76 406 -99 700 -92 235 5 332 19
521 73 310 89 602 250 673 371 28 48 28 48 28 233 0 164 -2 189 -19 214 -16
26 -22 28 -65 24 -38 -4 -72 -22 -198 -105 -326 -216 -589 -303 -914 -303
-224 0 -396 38 -574 125 -467 228 -715 773 -715 1570 0 807 269 1396 746 1634
174 87 308 116 534 115 364 -1 603 -90 996 -373 61 -44 122 -53 151 -21 34 36
48 105 48 240 -1 160 -17 218 -80 283 -49 51 -173 136 -270 185 -153 76 -397
149 -595 177 -95 13 -409 19 -480 9z"/>
<path d="M39189 19331 c-50 -10 -103 -34 -116 -53 -4 -7 -10 -789 -13 -1738
l-6 -1725 -22 -83 c-31 -116 -68 -186 -125 -238 -59 -52 -119 -73 -237 -81
-126 -8 -208 13 -367 92 -196 99 -227 87 -246 -90 -15 -139 2 -274 40 -330 71
-101 340 -185 593 -185 187 1 328 29 465 95 267 129 409 360 460 748 13 102
15 350 15 1818 0 1080 -4 1707 -10 1718 -20 38 -86 53 -240 57 -80 2 -166 -1
-191 -5z"/>
<path d="M50380 19299 c-25 -11 -60 -34 -78 -52 -66 -64 -62 80 -62 -2184 0
-2021 0 -2053 19 -2072 35 -35 97 -46 256 -46 159 0 221 11 256 46 19 19 19
50 19 1931 0 1144 4 1908 9 1903 5 -6 327 -840 716 -1855 389 -1015 719 -1873
732 -1908 15 -37 36 -70 51 -80 38 -25 137 -42 247 -42 129 0 211 19 245 57
17 18 292 693 790 1937 l765 1909 5 -1916 c5 -1911 5 -1917 25 -1937 62 -62
408 -66 499 -7 l26 18 -2 2083 -3 2083 -30 49 c-20 31 -47 58 -75 74 -44 24
-50 25 -290 28 -259 4 -333 -4 -404 -40 -58 -30 -127 -106 -167 -184 -20 -38
-332 -792 -695 -1676 -362 -884 -663 -1606 -669 -1605 -7 3 -890 2229 -1211
3056 -91 236 -104 261 -161 322 -98 105 -194 129 -528 129 -220 0 -244 -2
-285 -21z"/>
<path d="M93509 19306 c-55 -19 -94 -52 -115 -93 -18 -37 -19 -104 -19 -2073
l0 -2035 21 -40 c13 -25 39 -51 69 -70 l48 -30 1101 -2 c755 -2 1123 -6 1171
-14 102 -17 348 -7 404 16 54 22 28 -18 451 698 202 342 339 562 344 557 5 -5
172 -283 371 -617 l361 -608 50 -25 c47 -24 55 -25 249 -25 271 0 317 17 303
113 -2 15 -215 369 -472 787 -359 582 -466 763 -459 775 715 1154 872 1409
881 1427 18 32 14 78 -6 96 -31 28 -127 39 -292 35 -193 -5 -212 -12 -272
-107 -24 -37 -185 -300 -358 -584 -235 -385 -318 -513 -326 -504 -6 7 -161
262 -344 567 -183 305 -340 563 -349 574 -34 40 -79 49 -261 54 -196 5 -281
-6 -317 -40 -28 -26 -29 -57 -4 -106 11 -20 213 -352 451 -737 237 -384 429
-706 427 -715 -2 -8 -196 -320 -430 -693 l-425 -677 -7 62 c-8 75 -35 142 -63
157 -15 8 -283 11 -886 11 l-866 0 0 780 0 780 730 0 c524 0 736 3 754 11 48
22 61 69 61 224 0 114 -3 146 -17 172 -37 67 13 63 -795 63 l-733 0 0 685 0
685 859 0 859 0 25 30 c67 79 62 368 -8 427 l-26 23 -1052 0 c-834 -1 -1060
-4 -1088 -14z"/>
<path d="M67627 18976 c-92 -25 -86 3 -89 -430 l-3 -381 -233 -5 c-266 -6
-250 0 -279 -99 -22 -77 -14 -243 14 -297 31 -61 42 -64 286 -64 l217 0 0
-974 c0 -809 3 -994 15 -1089 60 -461 280 -684 718 -728 272 -27 592 42 651
141 24 42 39 156 33 254 -7 112 -21 154 -53 162 -30 8 -44 4 -174 -42 -82 -29
-124 -38 -194 -42 -249 -13 -368 85 -428 350 -21 90 -22 120 -25 1031 l-4 937
391 0 c440 0 433 -1 466 71 15 34 19 66 19 154 0 126 -7 170 -35 205 l-19 25
-408 5 -408 5 -5 383 -5 383 -25 19 c-14 10 -44 24 -67 29 -58 15 -297 13
-356 -3z"/>
<path d="M79957 18976 c-92 -25 -86 3 -89 -430 l-3 -381 -233 -5 c-266 -6
-250 0 -279 -99 -22 -77 -14 -243 14 -297 31 -61 42 -64 286 -64 l217 0 0
-974 c0 -809 3 -994 15 -1089 60 -461 280 -684 718 -728 272 -27 592 42 651
141 24 42 39 156 33 254 -7 112 -21 154 -53 162 -30 8 -44 4 -174 -42 -82 -29
-124 -38 -194 -42 -249 -13 -368 85 -428 350 -21 90 -22 120 -25 1031 l-4 937
391 0 c440 0 433 -1 466 71 15 34 19 66 19 154 0 126 -7 170 -35 205 l-19 25
-408 5 -408 5 -5 383 -5 383 -25 19 c-14 10 -44 24 -67 29 -58 15 -297 13
-356 -3z"/>
<path d="M41195 18220 c-351 -37 -662 -195 -869 -440 -189 -224 -306 -499
-363 -855 -22 -139 -25 -598 -5 -745 108 -773 507 -1186 1226 -1271 163 -19
511 -6 681 25 339 62 598 156 658 238 29 39 44 175 30 280 -10 70 -15 86 -39
106 -35 31 -58 26 -233 -44 -160 -65 -292 -105 -444 -136 -98 -20 -141 -23
-342 -22 -217 0 -236 2 -329 27 -284 76 -464 235 -562 495 -47 125 -75 274
-81 434 l-6 138 1016 2 1015 3 44 30 c25 18 52 49 66 75 20 41 22 58 22 222 0
616 -196 1032 -604 1276 -225 135 -558 196 -881 162z m425 -465 c118 -37 204
-90 286 -177 142 -150 224 -380 224 -630 l0 -88 -805 0 -805 0 0 51 c0 70 34
232 70 332 100 275 314 473 575 533 42 9 108 13 215 10 135 -3 166 -7 240 -31z"/>
<path d="M43950 18219 c-351 -38 -765 -194 -887 -333 -68 -76 -73 -320 -8
-390 47 -50 60 -47 273 62 325 166 499 215 757 215 289 0 462 -70 572 -231 81
-120 113 -271 113 -543 l0 -169 -227 0 c-521 0 -842 -46 -1102 -158 -288 -125
-475 -327 -546 -592 -26 -99 -32 -363 -11 -470 78 -382 346 -624 774 -695 152
-26 401 -17 535 18 206 55 414 177 595 351 l52 50 1 -149 c1 -83 4 -161 8
-175 4 -16 21 -33 46 -45 35 -17 60 -20 185 -20 173 0 213 13 231 74 15 52 6
2225 -10 2336 -64 439 -256 683 -631 803 -53 17 -143 38 -200 46 -129 20 -405
28 -520 15z m820 -2116 l0 -327 -107 -106 c-135 -132 -223 -199 -338 -256
-128 -63 -196 -78 -340 -79 -191 0 -315 43 -416 145 -98 98 -139 205 -139 364
0 117 14 179 60 265 60 113 175 199 335 250 170 55 290 67 688 70 l257 1 0
-327z"/>
<path d="M47263 18215 c-247 -38 -492 -176 -730 -411 l-123 -121 0 214 c0 212
0 214 -24 238 -34 34 -86 45 -221 45 -131 0 -188 -11 -222 -43 l-23 -20 0
-1557 c0 -1550 0 -1557 20 -1575 30 -27 130 -45 250 -45 120 0 220 18 250 45
20 18 20 27 20 1096 l0 1079 88 102 c317 368 575 515 843 478 148 -20 255 -74
345 -173 101 -110 173 -306 194 -525 6 -64 10 -496 10 -1065 0 -612 4 -965 10
-977 5 -10 31 -27 57 -37 67 -25 359 -26 415 -1 75 34 70 -57 65 1130 -4 1136
-4 1144 -56 1361 -75 314 -256 550 -522 677 -180 86 -429 119 -646 85z"/>
<path d="M56628 18219 c-478 -46 -847 -272 -1076 -659 -102 -173 -169 -370
-214 -630 -30 -170 -32 -601 -5 -783 58 -386 184 -666 396 -878 182 -182 402
-291 696 -347 134 -25 542 -24 680 2 296 55 589 210 765 404 133 146 253 358
319 562 164 505 128 1205 -84 1631 -124 251 -321 450 -560 564 -243 117 -583
166 -917 134z m452 -489 c392 -112 594 -443 630 -1030 31 -518 -95 -934 -348
-1145 -76 -64 -216 -136 -309 -160 -160 -40 -384 -38 -543 6 -221 60 -415 237
-510 465 -141 338 -157 891 -38 1264 57 179 136 309 255 420 85 80 158 124
266 161 121 42 174 48 357 44 132 -2 180 -7 240 -25z"/>
<path d="M59853 18215 c-247 -38 -492 -176 -730 -411 l-123 -121 0 214 c0 212
0 214 -24 238 -34 34 -86 45 -221 45 -131 0 -188 -11 -222 -43 l-23 -20 0
-1557 c0 -1550 0 -1557 20 -1575 30 -27 130 -45 250 -45 120 0 220 18 250 45
20 18 20 27 20 1096 l0 1079 88 102 c317 368 575 515 843 478 148 -20 255 -74
345 -173 101 -110 173 -306 194 -525 6 -64 10 -496 10 -1065 0 -612 4 -965 10
-977 5 -10 31 -27 57 -37 67 -25 359 -26 415 -1 75 34 70 -57 65 1130 -4 1136
-4 1144 -56 1361 -75 314 -256 550 -522 677 -180 86 -429 119 -646 85z"/>
<path d="M62833 18215 c-247 -38 -492 -176 -730 -411 l-123 -121 0 214 c0 212
0 214 -24 238 -34 34 -86 45 -221 45 -131 0 -188 -11 -222 -43 l-23 -20 0
-1557 c0 -1550 0 -1557 20 -1575 30 -27 130 -45 250 -45 120 0 220 18 250 45
20 18 20 27 20 1096 l0 1079 88 102 c317 368 575 515 843 478 148 -20 255 -74
345 -173 101 -110 173 -306 194 -525 6 -64 10 -496 10 -1065 0 -612 4 -965 10
-977 5 -10 31 -27 57 -37 67 -25 359 -26 415 -1 75 34 70 -57 65 1130 -4 1136
-4 1144 -56 1361 -75 314 -256 550 -522 677 -180 86 -429 119 -646 85z"/>
<path d="M65535 18220 c-351 -37 -662 -195 -869 -440 -189 -224 -306 -499
-363 -855 -22 -139 -25 -598 -5 -745 108 -773 507 -1186 1226 -1271 163 -19
511 -6 681 25 339 62 598 156 658 238 29 39 44 175 30 280 -10 70 -15 86 -39
106 -35 31 -58 26 -233 -44 -160 -65 -292 -105 -444 -136 -98 -20 -141 -23
-342 -22 -217 0 -236 2 -329 27 -284 76 -464 235 -562 495 -47 125 -75 274
-81 434 l-6 138 1016 2 1015 3 44 30 c25 18 52 49 66 75 20 41 22 58 22 222 0
616 -196 1032 -604 1276 -225 135 -558 196 -881 162z m425 -465 c118 -37 204
-90 286 -177 142 -150 224 -380 224 -630 l0 -88 -805 0 -805 0 0 51 c0 70 34
232 70 332 100 275 314 473 575 533 42 9 108 13 215 10 135 -3 166 -7 240 -31z"/>
<path d="M74875 18220 c-351 -37 -662 -195 -869 -440 -189 -224 -306 -499
-363 -855 -22 -139 -25 -598 -5 -745 108 -773 507 -1186 1226 -1271 163 -19
511 -6 681 25 339 62 598 156 658 238 29 39 44 175 30 280 -10 70 -15 86 -39
106 -35 31 -58 26 -233 -44 -160 -65 -292 -105 -444 -136 -98 -20 -141 -23
-342 -22 -217 0 -236 2 -329 27 -284 76 -464 235 -562 495 -47 125 -75 274
-81 434 l-6 138 1016 2 1015 3 44 30 c25 18 52 49 66 75 20 41 22 58 22 222 0
616 -196 1032 -604 1276 -225 135 -558 196 -881 162z m425 -465 c118 -37 204
-90 286 -177 142 -150 224 -380 224 -630 l0 -88 -805 0 -805 0 0 51 c0 70 34
232 70 332 100 275 314 473 575 533 42 9 108 13 215 10 135 -3 166 -7 240 -31z"/>
<path d="M78093 18215 c-247 -38 -492 -176 -730 -411 l-123 -121 0 214 c0 212
0 214 -24 238 -34 34 -86 45 -221 45 -131 0 -188 -11 -222 -43 l-23 -20 0
-1557 c0 -1550 0 -1557 20 -1575 30 -27 130 -45 250 -45 120 0 220 18 250 45
20 18 20 27 20 1096 l0 1079 88 102 c317 368 575 515 843 478 148 -20 255 -74
345 -173 101 -110 173 -306 194 -525 6 -64 10 -496 10 -1065 0 -612 4 -965 10
-977 5 -10 31 -27 57 -37 67 -25 359 -26 415 -1 75 34 70 -57 65 1130 -4 1136
-4 1144 -56 1361 -75 314 -256 550 -522 677 -180 86 -429 119 -646 85z"/>
<path d="M82755 18216 c-152 -30 -268 -98 -415 -246 -53 -52 -134 -146 -180
-209 l-85 -114 -5 237 c-5 234 -5 238 -28 257 -37 30 -89 39 -217 39 -131 0
-188 -11 -222 -43 l-23 -20 0 -1557 c0 -1550 0 -1557 20 -1575 30 -27 130 -45
250 -45 120 0 220 18 250 45 20 18 20 27 20 1033 l0 1015 76 116 c155 235 293
396 407 471 143 96 310 104 527 24 72 -26 111 -33 135 -24 42 16 50 60 50 270
0 221 -3 233 -75 270 -105 54 -351 82 -485 56z"/>
<path d="M84815 18220 c-351 -37 -662 -195 -869 -440 -189 -224 -306 -499
-363 -855 -22 -139 -25 -598 -5 -745 108 -773 507 -1186 1226 -1271 163 -19
511 -6 681 25 339 62 598 156 658 238 29 39 44 175 30 280 -10 70 -15 86 -39
106 -35 31 -58 26 -233 -44 -160 -65 -292 -105 -444 -136 -98 -20 -141 -23
-342 -22 -217 0 -236 2 -329 27 -284 76 -464 235 -562 495 -47 125 -75 274
-81 434 l-6 138 1016 2 1015 3 44 30 c25 18 52 49 66 75 20 41 22 58 22 222 0
616 -196 1032 -604 1276 -225 135 -558 196 -881 162z m425 -465 c118 -37 204
-90 286 -177 142 -150 224 -380 224 -630 l0 -88 -805 0 -805 0 0 51 c0 70 34
232 70 332 100 275 314 473 575 533 42 9 108 13 215 10 135 -3 166 -7 240 -31z"/>
<path d="M88668 18219 c-478 -46 -847 -272 -1076 -659 -102 -173 -169 -370
-214 -630 -30 -170 -32 -601 -5 -783 58 -386 184 -666 396 -878 182 -182 402
-291 696 -347 134 -25 542 -24 680 2 296 55 589 210 765 404 133 146 253 358
319 562 164 505 128 1205 -84 1631 -124 251 -321 450 -560 564 -243 117 -583
166 -917 134z m452 -489 c392 -112 594 -443 630 -1030 31 -518 -95 -934 -348
-1145 -76 -64 -216 -136 -309 -160 -160 -40 -384 -38 -543 6 -221 60 -415 237
-510 465 -141 338 -157 891 -38 1264 57 179 136 309 255 420 85 80 158 124
266 161 121 42 174 48 357 44 132 -2 180 -7 240 -25z"/>
<path d="M102355 18220 c-351 -37 -662 -195 -869 -440 -189 -224 -306 -499
-363 -855 -22 -139 -25 -598 -5 -745 108 -773 507 -1186 1226 -1271 163 -19
511 -6 681 25 339 62 598 156 658 238 29 39 44 175 30 280 -10 70 -15 86 -39
106 -35 31 -58 26 -233 -44 -160 -65 -292 -105 -444 -136 -98 -20 -141 -23
-342 -22 -217 0 -236 2 -329 27 -284 76 -464 235 -562 495 -47 125 -75 274
-81 434 l-6 138 1016 2 1015 3 44 30 c25 18 52 49 66 75 20 41 22 58 22 222 0
616 -196 1032 -604 1276 -225 135 -558 196 -881 162z m425 -465 c118 -37 204
-90 286 -177 142 -150 224 -380 224 -630 l0 -88 -805 0 -805 0 0 51 c0 70 34
232 70 332 100 275 314 473 575 533 42 9 108 13 215 10 135 -3 166 -7 240 -31z"/>
<path d="M107585 18220 c-351 -37 -662 -195 -869 -440 -189 -224 -306 -499
-363 -855 -22 -139 -25 -598 -5 -745 108 -773 507 -1186 1226 -1271 163 -19
511 -6 681 25 339 62 598 156 658 238 29 39 44 175 30 280 -10 70 -15 86 -39
106 -35 31 -58 26 -233 -44 -160 -65 -292 -105 -444 -136 -98 -20 -141 -23
-342 -22 -217 0 -236 2 -329 27 -284 76 -464 235 -562 495 -47 125 -75 274
-81 434 l-6 138 1016 2 1015 3 44 30 c25 18 52 49 66 75 20 41 22 58 22 222 0
616 -196 1032 -604 1276 -225 135 -558 196 -881 162z m425 -465 c118 -37 204
-90 286 -177 142 -150 224 -380 224 -630 l0 -88 -805 0 -805 0 0 51 c0 70 34
232 70 332 100 275 314 473 575 533 42 9 108 13 215 10 135 -3 166 -7 240 -31z"/>
<path d="M110803 18215 c-247 -38 -492 -176 -730 -411 l-123 -121 0 214 c0
212 0 214 -24 238 -34 34 -86 45 -221 45 -131 0 -188 -11 -222 -43 l-23 -20 0
-1557 c0 -1550 0 -1557 20 -1575 30 -27 130 -45 250 -45 120 0 220 18 250 45
20 18 20 27 20 1096 l0 1079 88 102 c317 368 575 515 843 478 148 -20 255 -74
345 -173 101 -110 173 -306 194 -525 6 -64 10 -496 10 -1065 0 -612 4 -965 10
-977 5 -10 31 -27 57 -37 67 -25 359 -26 415 -1 75 34 70 -57 65 1130 -4 1136
-4 1144 -56 1361 -75 314 -256 550 -522 677 -180 86 -429 119 -646 85z"/>
<path d="M116055 18220 c-351 -37 -662 -195 -869 -440 -189 -224 -306 -499
-363 -855 -22 -139 -25 -598 -5 -745 108 -773 507 -1186 1226 -1271 163 -19
511 -6 681 25 339 62 598 156 658 238 29 39 44 175 30 280 -10 70 -15 86 -39
106 -35 31 -58 26 -233 -44 -160 -65 -292 -105 -444 -136 -98 -20 -141 -23
-342 -22 -217 0 -236 2 -329 27 -284 76 -464 235 -562 495 -47 125 -75 274
-81 434 l-6 138 1016 2 1015 3 44 30 c25 18 52 49 66 75 20 41 22 58 22 222 0
616 -196 1032 -604 1276 -225 135 -558 196 -881 162z m425 -465 c118 -37 204
-90 286 -177 142 -150 224 -380 224 -630 l0 -88 -805 0 -805 0 0 51 c0 70 34
232 70 332 100 275 314 473 575 533 42 9 108 13 215 10 135 -3 166 -7 240 -31z"/>
<path d="M99715 18213 c-642 -83 -1050 -532 -1161 -1275 -21 -146 -30 -515
-15 -674 19 -203 50 -360 102 -519 31 -96 144 -314 201 -390 181 -240 446
-393 759 -439 123 -18 367 -21 472 -5 234 35 460 121 634 241 154 106 178 159
171 382 -5 160 -19 211 -62 222 -43 10 -66 -1 -191 -96 -288 -218 -474 -288
-735 -277 -146 6 -214 22 -328 78 -316 155 -475 556 -459 1164 12 452 102 732
302 931 139 140 289 197 515 197 242 1 434 -70 661 -244 123 -94 148 -109 185
-109 64 0 94 61 101 210 10 189 -24 271 -152 368 -140 106 -348 190 -559 227
-82 14 -357 19 -441 8z"/>
<path d="M113425 18213 c-642 -83 -1050 -532 -1161 -1275 -21 -146 -30 -515
-15 -674 19 -203 50 -360 102 -519 31 -96 144 -314 201 -390 181 -240 446
-393 759 -439 123 -18 367 -21 472 -5 234 35 460 121 634 241 154 106 178 159
171 382 -5 160 -19 211 -62 222 -43 10 -66 -1 -191 -96 -288 -218 -474 -288
-735 -277 -146 6 -214 22 -328 78 -316 155 -475 556 -459 1164 12 452 102 732
302 931 139 140 289 197 515 197 242 1 434 -70 661 -244 123 -94 148 -109 185
-109 64 0 94 61 101 210 10 189 -24 271 -152 368 -140 106 -348 190 -559 227
-82 14 -357 19 -441 8z"/>
<path d="M37680 9715 l0 -3435 40265 0 40265 0 0 3435 0 3435 -40265 0 -40265
0 0 -3435z m50575 2723 c69 -17 114 -54 143 -116 22 -48 27 -75 30 -172 10
-268 -62 -356 -299 -368 -200 -9 -301 28 -348 127 -24 53 -26 65 -26 206 0
147 1 151 30 210 26 52 37 64 86 88 30 15 84 32 120 37 71 9 203 4 264 -12z
m20550 0 c69 -17 114 -54 143 -116 22 -48 27 -75 30 -172 10 -268 -62 -356
-299 -368 -200 -9 -301 28 -348 127 -24 53 -26 65 -26 206 0 147 1 151 30 210
26 52 37 64 86 88 30 15 84 32 120 37 71 9 203 4 264 -12z m-68305 -63 c187
-31 386 -91 537 -160 105 -48 257 -150 307 -205 60 -68 71 -113 71 -295 0
-137 -2 -154 -23 -193 -40 -75 -81 -79 -173 -15 -271 188 -381 247 -565 309
-257 86 -601 87 -844 2 -461 -161 -762 -626 -846 -1309 -12 -91 -17 -212 -17
-374 0 -429 59 -742 192 -1021 174 -363 452 -581 834 -650 125 -23 388 -23
517 0 211 38 415 126 650 281 167 110 206 126 245 101 14 -9 31 -29 37 -44 17
-41 17 -337 -1 -386 -29 -82 -152 -182 -340 -276 -483 -242 -1071 -287 -1575
-119 -690 229 -1098 842 -1177 1767 -15 182 -7 623 16 782 45 325 123 584 252
840 99 196 183 317 318 458 291 304 645 474 1085 522 117 12 385 4 500 -15z
m37354 -29 c32 -8 68 -24 80 -35 l21 -22 6 -1472 c5 -1322 7 -1480 22 -1554
97 -475 366 -754 797 -829 146 -25 411 -15 545 20 184 48 314 124 436 253 120
129 202 294 250 508 l23 100 6 1487 c5 1471 5 1488 25 1507 33 33 126 51 267
51 157 0 222 -13 260 -51 l29 -28 -4 -1478 c-2 -1355 -4 -1486 -20 -1573 -73
-395 -214 -680 -447 -904 -251 -239 -562 -368 -985 -407 -399 -36 -792 40
-1091 211 -390 224 -629 633 -684 1169 -14 138 -14 2975 0 3001 9 17 65 43
115 53 50 11 294 6 349 -7z m34314 -347 c24 -7 54 -26 68 -42 l24 -29 0 -369
0 -369 396 0 396 0 28 -28 c38 -38 50 -88 50 -207 0 -119 -12 -169 -50 -207
l-28 -28 -397 0 -396 0 4 -957 c3 -953 3 -958 25 -1042 56 -209 150 -298 339
-316 88 -9 199 12 331 63 87 33 97 35 120 21 41 -23 54 -83 50 -234 -4 -185
-28 -223 -163 -274 -114 -43 -210 -56 -405 -56 -157 1 -199 4 -275 23 -139 35
-246 92 -336 182 -117 116 -180 247 -221 465 -21 106 -21 142 -25 1118 l-4
1007 -223 0 -222 0 -26 28 c-37 39 -51 94 -51 202 0 114 15 173 53 212 l28 28
221 0 221 0 0 365 c0 240 4 372 11 388 25 56 116 78 299 73 64 -2 135 -10 158
-17z m-67286 -764 c305 -40 535 -151 678 -328 109 -134 186 -348 209 -581 15
-152 15 -2279 0 -2308 -22 -41 -90 -60 -223 -60 -141 0 -197 12 -225 49 -19
23 -21 39 -21 185 l0 160 -88 -83 c-295 -281 -654 -398 -1052 -344 -441 59
-720 292 -817 681 -12 51 -17 112 -17 234 0 140 3 177 22 248 110 408 436 642
1025 734 109 17 195 21 495 25 l362 5 0 127 c0 350 -53 538 -186 660 -107 98
-229 139 -440 148 -289 12 -507 -46 -835 -223 -166 -90 -198 -98 -242 -64 -45
36 -60 94 -56 227 4 110 6 123 31 161 77 115 416 267 729 326 170 32 172 32
371 34 101 1 212 -4 280 -13z m9578 5 c260 -32 519 -139 667 -274 101 -93 108
-112 108 -296 0 -174 -12 -218 -67 -246 -43 -22 -76 -7 -214 97 -132 100 -292
185 -414 219 -109 31 -308 38 -420 16 -329 -67 -539 -330 -614 -771 -56 -323
-37 -744 46 -1005 96 -303 266 -482 526 -552 110 -30 334 -29 445 0 149 41
292 119 491 271 56 43 115 81 131 85 38 10 74 -17 93 -69 19 -51 22 -302 4
-361 -26 -89 -130 -180 -311 -273 -434 -223 -995 -225 -1388 -5 -341 191 -563
582 -629 1111 -21 164 -23 524 -5 683 78 682 394 1138 903 1304 89 29 219 57
323 69 67 8 246 6 325 -3z m4122 -5 c305 -40 535 -151 678 -328 109 -134 186
-348 209 -581 15 -152 15 -2279 0 -2308 -22 -41 -90 -60 -223 -60 -141 0 -197
12 -225 49 -19 23 -21 39 -21 185 l0 160 -88 -83 c-295 -281 -654 -398 -1052
-344 -441 59 -720 292 -817 681 -12 51 -17 112 -17 234 0 140 3 177 22 248
110 408 436 642 1025 734 109 17 195 21 495 25 l362 5 0 127 c0 350 -53 538
-186 660 -107 98 -229 139 -440 148 -289 12 -507 -46 -835 -223 -166 -90 -198
-98 -242 -64 -45 36 -60 94 -56 227 4 110 6 123 31 161 77 115 416 267 729
326 170 32 172 32 371 34 101 1 212 -4 280 -13z m4439 -14 c192 -42 371 -117
442 -186 44 -43 57 -98 57 -238 0 -114 -10 -163 -40 -195 -31 -33 -63 -27
-168 33 -204 116 -358 165 -552 172 -294 12 -469 -65 -558 -245 -36 -73 -37
-80 -37 -181 0 -96 3 -111 28 -164 38 -75 133 -169 234 -230 44 -26 185 -91
314 -143 323 -131 534 -236 635 -318 140 -112 242 -273 279 -436 23 -100 23
-307 0 -415 -69 -332 -297 -575 -646 -688 -389 -127 -892 -91 -1250 88 -103
52 -143 84 -170 137 -29 57 -44 190 -32 286 22 173 68 194 221 100 173 -105
366 -185 519 -214 128 -24 380 -16 478 16 154 49 259 132 313 247 25 54 27 68
27 188 0 151 -10 179 -99 273 -97 103 -196 158 -508 283 -362 144 -529 239
-656 373 -154 163 -222 338 -222 576 0 242 83 455 238 610 142 141 366 248
597 285 132 21 429 14 556 -14z m9120 0 c192 -42 371 -117 442 -186 44 -43 57
-98 57 -238 0 -114 -10 -163 -40 -195 -31 -33 -63 -27 -168 33 -204 116 -358
165 -552 172 -294 12 -469 -65 -558 -245 -36 -73 -37 -80 -37 -181 0 -96 3
-111 28 -164 38 -75 133 -169 234 -230 44 -26 185 -91 314 -143 323 -131 534
-236 635 -318 140 -112 242 -273 279 -436 23 -100 23 -307 0 -415 -69 -332
-297 -575 -646 -688 -389 -127 -892 -91 -1250 88 -103 52 -143 84 -170 137
-29 57 -44 190 -32 286 22 173 68 194 221 100 173 -105 366 -185 519 -214 128
-24 380 -16 478 16 154 49 259 132 313 247 25 54 27 68 27 188 0 151 -10 179
-99 273 -97 103 -196 158 -508 283 -362 144 -529 239 -656 373 -154 163 -222
338 -222 576 0 242 83 455 238 610 142 141 366 248 597 285 132 21 429 14 556
-14z m12394 14 c427 -69 718 -371 805 -834 37 -200 40 -292 40 -1340 0 -910
-2 -1029 -15 -1049 -25 -34 -109 -53 -243 -54 -197 -1 -276 21 -293 82 -4 14
-7 471 -8 1015 -1 817 -4 1007 -16 1088 -61 406 -267 617 -605 617 -238 0
-470 -144 -741 -459 l-99 -115 0 -1068 c0 -753 -3 -1074 -11 -1091 -6 -13 -27
-32 -47 -42 -76 -36 -368 -37 -444 -1 -19 9 -40 28 -47 42 -15 33 -16 3069 -1
3109 7 17 26 33 57 47 42 19 67 21 188 21 111 0 149 -4 184 -18 65 -27 71 -49
71 -276 l0 -192 128 124 c232 226 430 339 682 393 87 19 303 19 415 1z m12542
-1 c467 -69 806 -347 962 -788 93 -262 133 -743 73 -867 -26 -54 -78 -94 -142
-108 -29 -7 -391 -11 -1024 -11 l-979 0 7 -117 c27 -455 171 -725 461 -869
108 -53 208 -80 358 -95 285 -29 596 23 931 156 91 36 179 65 196 65 68 0 94
-69 88 -240 -6 -181 -29 -210 -232 -289 -320 -123 -756 -183 -1101 -151 -757
72 -1176 507 -1276 1325 -18 150 -16 515 5 660 106 758 520 1228 1171 1330
115 19 377 18 502 -1z m5030 -3 c129 -27 200 -61 218 -105 20 -47 29 -231 17
-345 -11 -103 -31 -144 -74 -149 -14 -2 -74 13 -133 33 -60 20 -143 41 -185
47 -254 36 -454 -116 -744 -565 l-56 -88 0 -1004 c0 -707 -3 -1011 -11 -1028
-6 -13 -27 -32 -47 -42 -76 -36 -368 -37 -444 -1 -19 9 -40 28 -47 42 -15 33
-16 3069 -1 3109 7 17 26 33 57 47 42 19 67 21 188 21 111 0 149 -4 184 -18
66 -28 71 -47 71 -296 l0 -212 42 59 c107 152 268 322 368 390 170 117 370
152 597 105z m3384 -10 c192 -42 371 -117 442 -186 44 -43 57 -98 57 -238 0
-114 -10 -163 -40 -195 -31 -33 -63 -27 -168 33 -204 116 -358 165 -552 172
-294 12 -469 -65 -558 -245 -36 -73 -37 -80 -37 -181 0 -96 3 -111 28 -164 38
-75 133 -169 234 -230 44 -26 185 -91 314 -143 323 -131 534 -236 635 -318
140 -112 242 -273 279 -436 23 -100 23 -307 0 -415 -69 -332 -297 -575 -646
-688 -389 -127 -892 -91 -1250 88 -103 52 -143 84 -170 137 -29 57 -44 190
-32 286 22 173 68 194 221 100 173 -105 366 -185 519 -214 128 -24 380 -16
478 16 154 49 259 132 313 247 25 54 27 68 27 188 0 151 -10 179 -99 273 -97
103 -196 158 -508 283 -362 144 -529 239 -656 373 -154 163 -222 338 -222 576
0 242 83 455 238 610 142 141 366 248 597 285 132 21 429 14 556 -14z m-56921
-44 c25 -12 51 -33 57 -47 10 -19 13 -249 13 -1010 0 -1013 3 -1087 41 -1240
119 -473 593 -626 999 -324 87 65 255 229 346 337 l74 88 0 1075 0 1075 24 24
c38 38 97 49 261 48 165 0 218 -13 255 -61 20 -24 20 -45 20 -1561 0 -1210 -3
-1541 -13 -1561 -21 -41 -100 -62 -242 -62 -135 0 -196 12 -231 47 -24 24 -24
26 -24 232 l0 208 -118 -115 c-337 -328 -667 -457 -1052 -410 -308 38 -546
179 -698 413 -82 127 -136 274 -174 472 -21 107 -22 138 -25 1218 -3 862 -1
1112 8 1124 39 46 138 64 319 57 91 -4 124 -10 160 -27z m17800 0 c25 -12 51
-33 57 -47 10 -19 13 -249 13 -1010 0 -1013 3 -1087 41 -1240 119 -473 593
-626 999 -324 87 65 255 229 346 337 l74 88 0 1075 0 1075 24 24 c38 38 97 49
261 48 165 0 218 -13 255 -61 20 -24 20 -45 20 -1561 0 -1210 -3 -1541 -13
-1561 -21 -41 -100 -62 -242 -62 -135 0 -196 12 -231 47 -24 24 -24 26 -24
232 l0 208 -118 -115 c-337 -328 -667 -457 -1052 -410 -308 38 -546 179 -698
413 -82 127 -136 274 -174 472 -21 107 -22 138 -25 1218 -3 862 -1 1112 8
1124 39 46 138 64 319 57 91 -4 124 -10 160 -27z m21828 23 c96 -11 145 -31
161 -66 16 -35 16 -3072 0 -3107 -6 -13 -27 -32 -47 -42 -76 -36 -368 -37
-444 -1 -19 9 -40 28 -47 42 -8 18 -11 432 -11 1554 0 1122 3 1536 11 1554 28
60 188 88 377 66z m2838 1 c109 -11 147 -28 173 -79 10 -20 209 -602 441
-1292 l423 -1256 429 1286 c339 1019 433 1288 450 1302 43 32 109 42 269 42
234 0 275 -26 251 -158 -12 -62 -1025 -2944 -1057 -3006 -26 -50 -86 -71 -232
-80 -133 -8 -336 2 -392 19 -43 13 -77 36 -95 64 -23 34 -1056 2975 -1063
3023 -12 92 16 122 129 134 104 10 170 11 274 1z m17712 -1 c96 -11 145 -31
161 -66 16 -35 16 -3072 0 -3107 -6 -13 -27 -32 -47 -42 -76 -36 -368 -37
-444 -1 -19 9 -40 28 -47 42 -8 18 -11 432 -11 1554 0 1122 3 1536 11 1554 28
60 188 88 377 66z m6599 -12 c23 -5 51 -20 63 -33 24 -25 26 -31 536 -1487
197 -564 362 -1021 365 -1015 3 7 192 567 420 1246 273 814 421 1241 435 1256
33 36 95 48 254 49 228 1 286 -26 278 -129 -3 -32 -193 -580 -536 -1545 -845
-2380 -949 -2669 -966 -2695 -36 -54 -151 -85 -323 -85 -182 0 -256 26 -268
95 -4 23 45 158 209 580 l215 550 -33 27 c-19 16 -42 50 -54 80 -98 243 -1084
2953 -1089 2989 -10 83 26 116 139 129 86 10 296 3 355 -12z"/>
<path d="M44565 9433 c-153 -14 -328 -63 -421 -119 -71 -42 -156 -123 -190
-181 -57 -98 -79 -274 -49 -400 21 -91 51 -148 113 -215 102 -109 196 -148
384 -155 144 -6 214 4 325 47 110 42 234 131 376 269 l127 124 0 318 0 319
-312 -2 c-172 -1 -331 -3 -353 -5z"/>
<path d="M58265 9433 c-153 -14 -328 -63 -421 -119 -71 -42 -156 -123 -190
-181 -57 -98 -79 -274 -49 -400 21 -91 51 -148 113 -215 102 -109 196 -148
384 -155 144 -6 214 4 325 47 110 42 234 131 376 269 l127 124 0 318 0 319
-312 -2 c-172 -1 -331 -3 -353 -5z"/>
<path d="M96639 10795 c-350 -66 -589 -349 -654 -775 -8 -52 -15 -105 -15
-117 l0 -23 807 0 806 0 -7 113 c-25 433 -211 703 -541 788 -107 27 -294 34
-396 14z"/>
</g>
</svg>
